<?xml version="1.0" standalone="no"?>
<!DOCTYPE svg PUBLIC "-//W3C//DTD SVG 1.1//EN" "http://www.w3.org/Graphics/SVG/1.1/DTD/svg11.dtd" >
<svg>
<metadata>
Created by FontForge 20110222 at Tue Jun  4 16:54:43 2013
 By www-data
Copyright (c) 2011 by Vincenzo Vuono. All rights reserved.
</metadata>
<defs>
<font id="Gravity-Book" horiz-adv-x="1044" >
  <font-face 
    font-family="Gravity"
    font-weight="400"
    font-stretch="normal"
    units-per-em="2048"
    panose-1="2 11 6 3 5 5 2 6 8 4"
    ascent="1638"
    descent="-410"
    x-height="1055"
    cap-height="1458"
    bbox="46.1336 -457 1945.66 1892"
    underline-thickness="92"
    underline-position="-174"
    unicode-range="U+0020-2122"
  />
    <missing-glyph />
    <glyph glyph-name="greater" unicode="&#x3e;" horiz-adv-x="1122" 
d="M112 886q-11 4 -17.5 14.5t-6.5 18.5v76q0 17 15 27t32 2l904 -393q18 -8 18 -28v-71q0 -20 -16 -27l-906 -464q-16 -10 -32.5 0t-16.5 28v75q0 20 18 31l766 374q9 4 9.5 16.5t-9.5 16.5z" />
    <glyph glyph-name="question" unicode="?" horiz-adv-x="1108" 
d="M888 1061q0 66 -26 117t-69.5 85t-101.5 51.5t-122 17.5q-56 0 -109 -15.5t-97.5 -45t-76.5 -73t-47 -100.5q-4 -15 -12.5 -25t-22.5 -10h-90q-8 0 -15.5 1.5t-12.5 6t-6.5 12.5t1.5 22q24 97 75 167.5t119 116.5t147.5 68t161.5 22q94 0 176 -30.5t142.5 -86t95.5 -133
t35 -171.5q0 -65 -17 -119t-46.5 -99t-68.5 -82.5t-83.5 -70t-92 -62t-92.5 -57.5q-10 -6 -10 -17l2 -122q0 -15 -9 -24t-23 -10h-97q-17 0 -26.5 9.5t-9.5 24.5l2 179q0 20 18 31q83 49 157.5 96.5t130 98t88 106t32.5 121.5zM641 34q0 -14 -9 -24t-24 -10h-131
q-14 0 -23 10t-9 24l2 135q0 14 9.5 24t23.5 10h125q14 0 23 -10t10 -24z" />
    <glyph glyph-name="at" unicode="@" horiz-adv-x="1537" 
d="M1456 787q0 -66 -14 -136.5t-44 -129t-78.5 -96t-117.5 -37.5q-53 0 -99 30t-75 82q-6 10 -16 11.5t-16 -6.5q-47 -57 -100 -88t-128 -31q-72 0 -130.5 28.5t-100 76t-64 108t-22.5 125.5q0 64 22 125t62 108t96.5 76t126.5 29q57 0 108 -24t98 -69q9 -8 20 -6t11 16v37
q0 13 7.5 21.5t20.5 8.5h37q11 0 18.5 -8t8.5 -20l16 -407q2 -35 19.5 -60.5t42 -36.5t53.5 -5t54 35q38 35 53 100t17 153q-2 117 -43.5 218.5t-115.5 177.5t-176.5 121t-226.5 49q-126 -1 -233 -51.5t-184.5 -136.5t-121 -200.5t-43.5 -242.5q0 -81 19.5 -158.5
t55.5 -147.5t87.5 -129.5t116 -102.5t141 -67.5t161.5 -24.5q87 0 169.5 24.5t153.5 78.5q11 9 27 5.5t21 -15.5l28 -60q7 -21 -6 -34.5t-28 -21.5q-73 -43 -161.5 -69t-203.5 -26q-103 0 -194.5 26.5t-168.5 75t-139 116t-105 150.5t-66 178t-23 198t24 198.5t68 179
t106.5 151.5t140 117t168.5 76t191 27q96 0 184 -25.5t163 -71t135.5 -109.5t103.5 -140.5t66 -163.5t23 -180zM973 726q0 50 -15.5 92.5t-43.5 73t-66 48t-83 17.5q-50 0 -88 -19t-63.5 -51t-39 -73t-13.5 -85q0 -49 15 -91t42.5 -73.5t65.5 -49.5t84 -18q50 0 88 20.5
t64 53.5t39.5 74t13.5 81z" />
    <glyph glyph-name="A" unicode="A" horiz-adv-x="1435" 
d="M1350 42q7 -17 -3.5 -29t-24.5 -13h-109q-25 0 -32 25l-147 402q-9 25 -36 25h-559q-25 0 -35 -23l-151 -406q-8 -22 -30 -23h-108q-20 0 -28 13t0 33l564 1394q3 8 9.5 13t17.5 5h80q22 0 30 -21zM956 639l-211 573q-4 11 -11.5 16t-15.5 5t-15 -5.5t-10 -15.5
l-211 -573q-6 -17 2 -26.5t25 -9.5h420q17 0 24.5 11t2.5 25z" />
    <glyph glyph-name="B" unicode="B" horiz-adv-x="1351" 
d="M1212 509q14 -72 5.5 -137.5t-35.5 -122.5t-69.5 -102.5t-95.5 -78.5t-113.5 -50.5t-123.5 -17.5h-658q-15 0 -25 10t-9 24l26 1390q0 14 9 24t24 10h606q88 0 159.5 -32t122.5 -85t79 -121t28 -141q1 -83 -37 -158.5t-107 -127.5q91 -49 142.5 -122.5t71.5 -161.5z
M255 878q0 -13 8 -21t20 -8h479q47 0 89.5 19t74.5 50.5t50.5 73.5t18.5 89q0 52 -21 94.5t-55 72.5t-77.5 46.5t-88.5 16.5h-474q-14 0 -22 -7.5t-8 -21.5zM1051 442q-3 51 -23 98t-54.5 83t-81.5 57.5t-104 22.5l-501 1q-14 0 -21 -9t-7 -21l7 -486q0 -12 7.5 -19.5
t19.5 -8.5h485q60 0 110.5 24.5t87 64.5t56.5 90.5t19 102.5z" />
    <glyph glyph-name="C" unicode="C" horiz-adv-x="1522" 
d="M1434 467q-34 -106 -96 -195.5t-146.5 -154.5t-189.5 -101.5t-225 -36.5q-108 0 -201 28.5t-170.5 79t-137.5 120t-101 152.5t-62.5 175.5t-21.5 189.5q0 158 49 295.5t140 239.5t219 161t286 59q114 0 213.5 -31.5t180.5 -86.5t140.5 -129.5t94.5 -161.5q9 -20 -1 -35
t-30 -15h-88q-14 0 -22 6t-15 19q-36 66 -82.5 120t-105 93t-129.5 60.5t-156 21.5q-115 0 -213 -45.5t-169.5 -125t-112 -188.5t-40.5 -236q0 -130 41.5 -242t113.5 -194.5t169.5 -129.5t210.5 -47q88 0 164 28t138.5 76.5t111 115t80.5 143.5q5 11 12.5 19t22.5 8h99
q12 0 19 -5.5t10.5 -13.5t3 -17.5t-3.5 -18.5z" />
    <glyph glyph-name="D" unicode="D" horiz-adv-x="1369" 
d="M634 1458q159 0 280.5 -59.5t204 -160.5t125 -235t42.5 -284q0 -92 -16.5 -181t-50 -168.5t-84 -147.5t-118 -117t-152.5 -77t-188 -28h-556q-15 0 -24.5 10t-9.5 24l24 1391q0 14 9 23.5t23 9.5h491zM666 160q105 0 189.5 47.5t144 125.5t91 179t31.5 208
q0 113 -31 219.5t-90.5 189t-146.5 132.5t-198 50h-382q-28 -2 -28 -31l19 -1092q0 -14 8.5 -21t20.5 -7h372z" />
    <glyph glyph-name="E" unicode="E" horiz-adv-x="1134" 
d="M1059 34q0 -15 -10 -24.5t-24 -9.5h-904q-15 0 -24.5 10t-9.5 24l24 1390q0 14 8.5 24t22.5 10h861q13 0 21 -8.5t8 -20.5l1 -85q0 -12 -6.5 -21t-20.5 -9h-732q-14 -1 -21 -9.5t-7 -20.5l7 -406q0 -13 8 -21t20 -8h661q12 0 20.5 -8t8.5 -21l1 -86q0 -13 -8.5 -21.5
t-20.5 -8.5h-657q-14 0 -21.5 -8t-7.5 -21l8 -488q0 -11 8 -19t20 -8h728q15 0 25 -7.5t11 -21.5z" />
    <glyph glyph-name="F" unicode="F" horiz-adv-x="1095" 
d="M1033 1343q0 -12 -7.5 -20t-20.5 -9h-731q-14 -1 -21 -9.5t-7 -20.5l7 -406q0 -13 8 -21t20 -8h661q12 0 20 -8t9 -20l1 -88q0 -12 -8 -20.5t-20 -8.5h-657q-14 0 -22 -8t-8 -21l11 -641q0 -14 -9.5 -24t-24.5 -10h-113q-16 0 -25 10t-9 24l24 1390q0 14 8.5 24t22.5 10
h860q13 0 21.5 -8.5t8.5 -20.5z" />
    <glyph glyph-name="G" unicode="G" horiz-adv-x="1554" 
d="M1474 649q-9 -137 -64.5 -258.5t-147.5 -213t-215 -145t-268 -53.5q-153 0 -281 58.5t-220 161.5t-143.5 243t-51.5 303q0 154 51.5 288t143.5 233t220 156t281 57q109 0 208 -32t181.5 -87.5t145 -132t99.5 -164.5q5 -11 3.5 -19.5t-6.5 -14.5t-13 -9.5t-15 -3.5h-94
q-21 0 -31 23q-36 70 -87 126t-112.5 95t-132 59.5t-146.5 20.5q-114 0 -212.5 -45t-170.5 -124.5t-113 -188t-41 -235.5q0 -131 40.5 -243.5t112.5 -195t170 -129.5t214 -47q87 0 165 29.5t142 78.5t111.5 113t74.5 133q7 17 3 34t-28 17h-335q-15 0 -24.5 9.5t-9.5 23.5
v80q0 14 9.5 23.5t24.5 9.5h528q14 0 24 -9.5t10 -24.5z" />
    <glyph glyph-name="H" unicode="H" horiz-adv-x="1338" 
d="M1251 36q0 -14 -8.5 -25t-25.5 -11h-112q-15 0 -24.5 10t-9.5 24l11 641q0 29 -30 29h-765q-29 0 -29 -29l10 -641q0 -14 -9.5 -24t-24.5 -10h-113q-14 0 -24 10t-10 24l24 1395q0 12 9 20t23 9h68q14 0 23 -9.5t9 -23.5l11 -549q0 -11 7.5 -19t21.5 -8h774
q11 0 19.5 7.5t8.5 20.5l10 543q0 17 8 27.5t26 10.5h66q14 0 23.5 -9.5t9.5 -23.5z" />
    <glyph glyph-name="I" unicode="I" horiz-adv-x="470" 
d="M140 34l24 1391q0 14 9.5 23.5t23.5 9.5h67q14 0 23 -9.5t9 -23.5l24 -1391q0 -14 -9.5 -24t-24.5 -10h-112q-15 0 -24.5 10t-9.5 24z" />
    <glyph glyph-name="J" unicode="J" horiz-adv-x="993" 
d="M907 406q-3 -94 -35.5 -172.5t-88 -135t-130.5 -88t-164 -31.5q-88 0 -165.5 32t-135 90t-90.5 139t-33 179q0 18 11.5 27t29.5 9h87q14 0 24.5 -9.5t10.5 -26.5q0 -66 19 -119.5t53.5 -90.5t82.5 -57t106 -20q54 0 99.5 21.5t78.5 58t51.5 84t19.5 100.5l18 1036
q0 11 9 18.5t20 7.5h75q12 0 20 -7.5t8 -18.5z" />
    <glyph glyph-name="K" unicode="K" horiz-adv-x="1371" 
d="M1266 52q8 -8 8 -17.5t-5 -17t-13.5 -12.5t-17.5 -5h-132q-11 0 -18.5 5t-13.5 13l-541 682q-10 11 -22 11.5t-22 -10.5l-220 -212q-8 -8 -8 -21l7 -434q0 -14 -9.5 -24t-24.5 -10h-111q-15 0 -25.5 9.5t-10.5 24.5l24 1389q0 15 8.5 25t22.5 10h69q14 0 23 -9.5t9 -23.5
l12 -647q0 -19 15 -26.5t30 4.5l784 694q11 8 23 8h83q10 0 18 -6t11 -14.5t1.5 -18t-9.5 -17.5l-576 -559q-9 -9 -9 -20t8 -21z" />
    <glyph glyph-name="L" unicode="L" horiz-adv-x="1126" 
d="M1066 33q0 -14 -9.5 -23.5t-24.5 -9.5h-911q-14 0 -24 10t-10 24l24 1392q0 32 33 32h67q14 0 23 -9t9 -23l22 -1236q0 -13 7.5 -21.5t20.5 -8.5h741q12 0 21 -7t9 -20z" />
    <glyph glyph-name="M" unicode="M" horiz-adv-x="1624" 
d="M1536 35q0 -14 -9.5 -24.5t-24.5 -10.5h-109q-15 0 -26 9t-11 25l19 1152q0 8 -4.5 13t-10 6t-11.5 -2t-9 -10l-437 -1170q-5 -10 -13.5 -16.5t-19.5 -6.5h-115q-25 0 -33 23l-436 1171q-4 6 -10 8.5t-12 1.5t-10 -6t-4 -12l19 -1150q0 -14 -9 -25t-24 -11h-114
q-14 0 -24 10t-10 24l24 1389q0 16 9 25.5t25 9.5h143q12 0 20.5 -7t12.5 -17l462 -1140q7 -18 25.5 -18.5t26.5 17.5l469 1144q4 9 12 15t19 6h143q15 0 24.5 -10t9.5 -24z" />
    <glyph glyph-name="N" unicode="N" horiz-adv-x="1337" 
d="M1250 34q0 -15 -10 -24.5t-24 -9.5h-147q-13 0 -19.5 5.5t-12.5 15.5l-754 1173q-7 11 -20.5 9.5t-13.5 -17.5l19 -1150q0 -14 -9 -25t-24 -11h-114q-14 0 -24 10t-10 24l24 1389q0 15 8 25t24 10h112q16 0 26 -13l760 -1157q7 -13 20.5 -9.5t13.5 18.5l18 1128
q0 14 9.5 23.5t23.5 9.5h69q14 0 22.5 -9.5t9.5 -23.5z" />
    <glyph glyph-name="O" unicode="O" horiz-adv-x="1564" 
d="M785 1479q151 0 279 -56.5t220.5 -155t144.5 -232.5t52 -288q0 -108 -22.5 -206.5t-65.5 -184t-104.5 -155t-139.5 -119t-171 -76.5t-198 -27q-155 0 -283 59.5t-220 163t-143 243t-51 300.5q0 156 52 290.5t145.5 233t222.5 154.5t282 56zM783 132q79 2 150 25.5
t131 64.5t108 96.5t81 123t51 144.5t18 159q0 120 -40 228t-111 189.5t-170.5 129.5t-217.5 48t-217 -47.5t-171 -129t-112 -189.5t-40 -229q0 -124 39 -234t110 -193t170.5 -133t220.5 -53z" />
    <glyph glyph-name="P" unicode="P" horiz-adv-x="1209" 
d="M719 1458q89 0 165.5 -33t133 -90t89 -134.5t32.5 -166.5q0 -86 -29.5 -160t-83.5 -130.5t-129 -90.5t-166 -38h-445q-11 0 -19 -8t-8 -20l9 -553q0 -14 -10 -24t-26 -10h-111q-15 0 -24.5 10t-9.5 24l24 1391q0 14 9.5 23.5t23.5 9.5h575zM714 760q65 0 117 22t88 59.5
t55.5 87.5t19.5 105t-20 105.5t-56 89.5t-86.5 62t-111.5 23h-447q-11 0 -19 -8t-8 -20l9 -500q1 -11 8 -18.5t18 -7.5h433z" />
    <glyph glyph-name="Q" unicode="Q" horiz-adv-x="1562" 
d="M1219 140q-11 -5 -9 -18.5t8 -19.5l81 -90q9 -9 9.5 -21t-9.5 -19l-79 -70q-11 -11 -24 -8t-21 14l-99 122q-5 7 -11 8t-14 -1q-60 -24 -128 -41t-140 -17q-111 0 -206.5 28.5t-173.5 79t-138 121.5t-101 156t-62 182t-21 199q0 152 51 286t143.5 233.5t220.5 157
t282 57.5q105 0 197.5 -26.5t170.5 -74t139.5 -115t104.5 -149t66 -175t23 -194.5q0 -189 -65 -342.5t-195 -262.5zM1120 271q97 85 148.5 208t51.5 266q0 130 -43 239t-117 188t-172 123.5t-207 44.5q-111 0 -209.5 -44.5t-172 -124t-116 -188.5t-42.5 -238
q0 -131 42.5 -243t116 -194.5t171.5 -129t209 -46.5q10 0 35.5 1.5t53.5 6t51 13t28 22.5q4 10 -3 19l-73 92q-9 10 -8.5 22t9.5 21l60 50q10 10 22 8.5t20 -10.5l101 -115q4 -8 10.5 -8t13 3t12.5 7.5t8 6.5z" />
    <glyph glyph-name="R" unicode="R" horiz-adv-x="1368" 
d="M1267 53q8 -8 8 -17.5t-4.5 -17.5t-13 -13t-17.5 -5h-131q-20 0 -32 17l-466 586q-11 12 -24 12h-300q-12 0 -19.5 -8.5t-7.5 -21.5l8 -551q0 -17 -11 -25.5t-24 -8.5h-112q-14 0 -24 9.5t-10 24.5l26 1390q0 14 9.5 24t23.5 10h563q87 0 165 -32t137.5 -88.5t94.5 -134
t35 -169.5q0 -74 -24.5 -140.5t-67.5 -120t-101.5 -90t-125.5 -51.5q-11 -3 -14.5 -13t3.5 -18zM715 760q59 0 110 21.5t89 59t60 87t22 106.5t-21.5 107.5t-59.5 89t-89.5 61t-111.5 22.5h-438q-11 0 -19.5 -8t-8.5 -20l7 -497q1 -12 8.5 -20.5t19.5 -8.5h432z" />
    <glyph glyph-name="S" unicode="S" horiz-adv-x="1312" 
d="M1230 415q-1 -118 -47 -200.5t-123 -135t-178 -76.5t-213 -24q-56 0 -118.5 10.5t-124 32t-119.5 56t-104.5 82t-78.5 109.5t-42 139q-1 18 6.5 29.5t27.5 11.5h100q11 0 20.5 -7.5t12.5 -18.5q16 -68 56.5 -121.5t96.5 -91t124 -57.5t139 -21q66 0 134 15.5t123.5 47.5
t91 81.5t35.5 119.5q0 48 -15 85t-42.5 65t-64.5 49t-81 36.5t-92.5 28t-97.5 23.5q-65 14 -127.5 30t-118.5 38.5t-103 52.5t-81.5 71.5t-54 95.5t-19.5 124q0 93 39.5 164.5t105.5 120t152 74t180 25.5q92 0 181.5 -22t164 -68t128 -117.5t74.5 -169.5q0 -16 -8.5 -25.5
t-25.5 -9.5h-93q-14 0 -22.5 9.5t-13.5 24.5q-23 63 -64.5 108t-92.5 74.5t-107 43t-107 13.5q-52 0 -111.5 -13t-110 -41t-84.5 -72.5t-34 -107.5q-1 -51 20.5 -89.5t56 -67.5t79.5 -50t92.5 -35t93 -23.5t81.5 -15.5q95 -17 185.5 -45t161 -75.5t114 -118t43.5 -171.5z
" />
    <glyph glyph-name="T" unicode="T" horiz-adv-x="1238" 
d="M1166 1344q0 -12 -6.5 -21t-20.5 -9h-426q-11 0 -19.5 -7t-8.5 -21l21 -1252q0 -14 -9.5 -24t-24.5 -10h-113q-14 0 -23.5 10t-9.5 24l20 1251q0 12 -8.5 20.5t-19.5 8.5h-417q-13 0 -20.5 8t-7.5 22l2 87q0 12 8.5 19.5t20.5 7.5h1032q13 0 21 -7.5t8 -19.5z" />
    <glyph glyph-name="U" unicode="U" horiz-adv-x="1319" 
d="M248 574q1 -95 34 -176t89.5 -140t130.5 -92.5t158 -33.5q83 0 157.5 34t130.5 93.5t89 140.5t34 175l15 850q0 14 9.5 23.5t23.5 9.5h68q14 0 23 -9.5t9 -23.5l14 -853q-4 -124 -48 -232t-119.5 -188.5t-179 -126.5t-226.5 -46q-122 0 -225 45t-179.5 124t-121 185.5
t-48.5 229.5l13 862q0 14 9.5 23.5t23.5 9.5h68q14 0 22.5 -9.5t9.5 -23.5z" />
    <glyph glyph-name="V" unicode="V" horiz-adv-x="1416" 
d="M826 25q-8 -25 -33 -25h-150q-27 0 -34 21l-524 1401q-7 17 3 26.5t29 9.5h83q23 0 31 -21l467 -1186q5 -14 18.5 -13t18.5 13l452 1185q8 22 33 22h82q14 0 24.5 -10.5t5.5 -25.5z" />
    <glyph glyph-name="W" unicode="W" horiz-adv-x="2034" 
d="M1534 26q-4 -11 -13 -18.5t-21 -7.5h-149q-12 0 -21.5 7t-12.5 18l-287 1077q-1 8 -6.5 11.5t-11.5 3t-11.5 -4t-7.5 -10.5l-315 -1076q-3 -11 -12.5 -18.5t-22.5 -7.5h-147q-28 0 -35 25l-373 1390q-5 16 4 29.5t27 13.5h82q24 0 31 -22l317 -1183q3 -8 8 -12t11 -4.5
t11.5 3t7.5 11.5l353 1180q3 11 12 19t22 8h84q12 0 21 -8t12 -19l315 -1178q3 -8 8 -12t11 -4.5t11.5 3t7.5 11.5l355 1184q4 10 12 16.5t19 6.5h82q19 0 28.5 -15t1.5 -31z" />
    <glyph glyph-name="X" unicode="X" horiz-adv-x="1345" 
d="M772 757q-12 -19 1 -35l473 -671q11 -15 3 -33t-28 -18h-119q-19 0 -29 15l-377 558q-11 14 -25.5 13t-22.5 -13l-375 -557q-5 -7 -12.5 -11.5t-15.5 -4.5h-120q-19 0 -28.5 17t1.5 34l475 671q5 8 5.5 17.5t-4.5 17.5l-423 653q-11 15 -0.5 31.5t29.5 16.5h81
q18 0 29 -16l358 -543q8 -12 24 -11.5t23 13.5l359 540q11 16 30 17h82q22 0 30 -17.5t-3 -34.5z" />
    <glyph glyph-name="Y" unicode="Y" horiz-adv-x="1222" 
d="M1106 1458q21 0 29 -17.5t-3 -34.5l-436 -672q-2 -5 -4 -9.5t-2 -9.5l12 -681q0 -14 -9.5 -24t-24.5 -10h-112q-15 0 -24.5 10t-9.5 24l11 681q0 11 -5 19l-438 676q-6 7 -5.5 15.5t5 16t12 12.5t17.5 4h81q17 0 28 -16l359 -542q9 -13 23 -13q18 0 24 14l360 539
q11 17 30 18h82z" />
    <glyph glyph-name="Z" unicode="Z" horiz-adv-x="1328" 
d="M1247 33q0 -14 -9.5 -23.5t-24.5 -9.5h-1097q-15 0 -25.5 10.5t-10.5 27.5l3 110q0 12 8 23l906 1111q8 11 2.5 21.5t-19.5 10.5h-840q-15 0 -24 9.5t-9 26.5l1 76q0 13 10 22.5t25 9.5h1044q15 0 24 -9.5t10 -23.5l2 -78q0 -18 -10 -28l-872 -1127q-8 -10 -2.5 -20.5
t16.5 -10.5h856q15 0 25 -7.5t10 -22.5z" />
    <glyph glyph-name="bracketleft" unicode="[" horiz-adv-x="551" 
d="M238 1329q-17 0 -17 -20v-1600q0 -20 17 -20h213q13 0 22 -8t9 -21v-71q0 -13 -8.5 -21t-22.5 -8h-331q-14 0 -23 7.5t-9 21.5v1840q0 14 9 21.5t23 7.5h331q13 0 22 -7.5t9 -20.5v-72q0 -13 -9 -21t-22 -8h-213z" />
    <glyph glyph-name="backslash" unicode="\" horiz-adv-x="856" 
d="M180 1458q21 0 28 -19l575 -1393q5 -15 -2 -30.5t-27 -15.5h-115q-25 0 -31 21l-530 1394q-4 7 -3 14.5t5 14t11 10.5t15 4h74z" />
    <glyph glyph-name="bracketright" unicode="]" horiz-adv-x="552" 
d="M101 1329q-13 0 -22 8t-9 21v72q0 13 9 20.5t22 7.5h331q14 0 23 -7.5t9 -21.5v-1840q0 -14 -9 -21.5t-23 -7.5h-331q-14 0 -22.5 8t-8.5 21v71q0 13 9 21t22 8h213q17 0 17 20v1600q0 20 -17 20h-213z" />
    <glyph glyph-name="asciicircum" unicode="^" horiz-adv-x="1191" 
d="M227 513q-4 -11 -14.5 -17.5t-18.5 -7.5h-76q-17 0 -27.5 15t-1.5 32l422 905q7 18 27 18h71q20 0 28 -16l465 -906q10 -16 -0.5 -32.5t-28.5 -16.5h-75q-21 0 -31 18l-374 766q-5 9 -17 9.5t-16 -9.5z" />
    <glyph glyph-name="underscore" unicode="_" horiz-adv-x="1146" 
d="M1058 -262q-2 -25 -27 -27h-915q-11 0 -19.5 8t-8.5 19v76q0 11 8 20t20 9h913q13 0 20.5 -8t8.5 -19v-78z" />
    <glyph glyph-name="a" unicode="a" 
d="M800 781q-2 45 -24 76.5t-57 51t-79.5 28t-91.5 8.5q-40 0 -80.5 -8.5t-76 -28t-64 -51.5t-44.5 -78q-7 -20 -13 -29t-23 -11h-85q-19 0 -26 17.5t-3 33.5q13 73 57 127t104 89t130 52t135 17q75 0 143.5 -17.5t121 -55.5t84.5 -97.5t34 -142.5l12 -728q0 -15 -9.5 -24.5
t-24.5 -9.5h-102q-15 0 -24 9.5t-9 24.5l1 82q0 14 -12 17t-22 -8q-77 -79 -170 -112.5t-191 -33.5q-69 0 -125.5 25t-97.5 66.5t-63.5 95.5t-23.5 113q0 49 15 94t42 82.5t65 65t84 41.5q73 18 137 28.5t120 21.5t104 24.5t90 37.5q62 35 62 107zM232 300q0 -63 30 -101
t76.5 -55t104.5 -15t114 18.5t103.5 45t75.5 65.5q18 24 29 60.5t17 77t8.5 80t2.5 69.5q0 14 -14 13q-49 -18 -95.5 -31.5t-95 -25t-102 -23t-115.5 -24.5q-64 -14 -101.5 -55.5t-37.5 -98.5z" />
    <glyph glyph-name="b" unicode="b" horiz-adv-x="1191" 
d="M625 1075q106 2 196 -39.5t156 -115.5t103.5 -174.5t37.5 -217.5q0 -112 -36.5 -212t-102.5 -175t-158.5 -118.5t-203.5 -43.5q-44 0 -88.5 10.5t-86.5 31t-80 49.5t-67 65q-11 14 -22.5 10.5t-11.5 -20.5l1 -91q0 -14 -9 -24t-23 -10h-110q-14 0 -23.5 9.5t-9.5 24.5
l23 1392q0 13 9 22.5t23 9.5h65q13 -1 22 -10t9 -22l9 -516q0 -15 12.5 -19t22.5 5q25 25 59 56t77 58t95 45.5t112 19.5zM620 129q76 0 138.5 33.5t107.5 90t69.5 129.5t24.5 151q0 80 -23 154.5t-66.5 131.5t-105 91.5t-139.5 34.5q-80 0 -148 -32.5t-118.5 -89
t-79 -132.5t-28.5 -163q0 -101 31 -175.5t82.5 -124.5t118 -74.5t136.5 -24.5z" />
    <glyph glyph-name="c" unicode="c" horiz-adv-x="1150" 
d="M1065 330q-23 -74 -66.5 -138t-104.5 -111.5t-137.5 -74.5t-164.5 -27q-115 0 -209 42.5t-160.5 117t-103 174.5t-36.5 215q0 122 38 223t106 173t160.5 111.5t202.5 39.5q75 0 143 -20t125.5 -56.5t103.5 -89t76 -117.5q9 -17 -1 -32t-28 -15h-94q-21 0 -31 18
q-46 83 -119.5 132.5t-174.5 49.5q-80 0 -146 -34t-113 -90.5t-73 -130t-26 -153.5q0 -91 26 -166t73 -129t113 -83.5t146 -29.5q56 0 105 16t90.5 45.5t74 70.5t54.5 91q8 20 31 21h89q21 -2 28 -15.5t3 -27.5z" />
    <glyph glyph-name="d" unicode="d" horiz-adv-x="1181" 
d="M73 528q0 118 37.5 218t103.5 173t156.5 114.5t196.5 41.5q52 0 100.5 -14.5t91.5 -39t78.5 -56t62.5 -65.5q10 -11 22 -6.5t12 19.5l9 512q0 14 9 23t23 10h63q14 0 23 -9.5t9 -23.5l24 -1391q0 -14 -9 -24t-23 -10h-111q-13 0 -22.5 9.5t-9.5 24.5l1 92q0 17 -13 18.5
t-22 -9.5q-25 -29 -59 -56t-74 -48t-85 -34t-91 -13q-112 0 -204.5 43t-159 117t-103 173t-36.5 211zM231 535q0 -75 23.5 -148t68 -130.5t108.5 -92.5t145 -35t147 34t113 91t72.5 131.5t25.5 154.5q0 84 -28.5 158t-78 129t-116.5 86.5t-143 31.5q-78 0 -140.5 -34.5
t-106 -91.5t-67 -131t-23.5 -153z" />
    <glyph glyph-name="e" unicode="e" horiz-adv-x="1173" 
d="M1093 558q0 -17 -10 -26.5t-23 -9.5h-808q-19 -1 -19 -22q4 -80 31 -148t73 -117.5t110 -77.5t143 -28q99 0 174 46.5t123 121.5q12 17 29 17h94q20 0 28 -17t0 -32q-32 -65 -77 -117.5t-102 -90t-124.5 -58t-143.5 -20.5q-115 0 -208.5 42.5t-160 116.5t-103 174.5
t-36.5 217.5q0 120 38 220t105.5 172.5t160.5 112.5t203 40q112 0 203 -43t156 -114.5t102 -165t42 -194.5zM904 645q11 0 16.5 7.5t1.5 18.5q-18 54 -49 103.5t-73.5 87.5t-95.5 60.5t-114 22.5t-115.5 -21.5t-98.5 -59t-76 -87.5t-48 -107q-4 -11 1.5 -18t17.5 -7h633z
" />
    <glyph glyph-name="f" unicode="f" horiz-adv-x="641" 
d="M566 963q0 -13 -9 -22.5t-22 -9.5h-133q-8 0 -14 -6t-6 -14l14 -877q0 -15 -9.5 -24.5t-24.5 -9.5h-108q-14 0 -23.5 9.5t-9.5 24.5l15 877q0 8 -6 14t-14 6h-112q-14 0 -23.5 9.5t-9.5 23.5l2 56q0 14 9 23t22 9h114q8 0 14 6.5t6 15.5l4 142q1 51 20 95t50.5 77
t73.5 51.5t89 18.5h47q15 0 24.5 -9.5t9.5 -23.5l1 -53q0 -16 -8.5 -26t-24.5 -10h-52q-19 0 -36 -8.5t-30 -23t-21 -34t-9 -42.5l2 -154q0 -9 6 -15.5t15 -6.5h133q14 0 23.5 -9t9.5 -22z" />
    <glyph glyph-name="g" unicode="g" horiz-adv-x="1181" 
d="M1095 19q0 -101 -39.5 -188t-106 -151t-155 -100.5t-186.5 -36.5q-67 0 -128.5 17.5t-114.5 48.5t-96.5 73t-73.5 91q-5 9 -4.5 17.5t4.5 15.5t11.5 11.5t15.5 4.5h106q19 0 29 -16q45 -56 110 -89t140 -33q67 0 125.5 25t102 69.5t68.5 104.5t27 130l2 103q0 18 -13 21
t-23 -10q-25 -29 -59 -55.5t-74.5 -47t-86 -33t-92.5 -12.5q-112 0 -204.5 43.5t-159 118.5t-103 175t-36.5 212q0 117 37 217t104 173.5t159 115t203 41.5q50 0 97 -15t89 -39t76.5 -54.5t60.5 -61.5q11 -11 23 -6.5t12 18.5l1 97q0 15 10 24t24 9h73q16 0 25 -9t9 -24z
M585 129q84 0 150.5 33.5t112.5 90.5t70.5 131.5t24.5 156.5t-29 155.5t-78.5 129t-117 87.5t-143.5 32q-78 0 -140 -34t-106 -91t-67.5 -131t-23.5 -154q0 -75 24 -148t69 -130.5t109 -92.5t145 -35z" />
    <glyph glyph-name="h" unicode="h" horiz-adv-x="1030" 
d="M954 34q0 -14 -9.5 -24t-23.5 -10h-107q-14 0 -25 8.5t-11 25.5l13 693q-2 45 -16.5 85t-41 69.5t-64 46.5t-83.5 17q-40 0 -80 -13t-76.5 -36t-68.5 -53t-55.5 -64.5t-37.5 -70.5t-16 -70l10 -604q0 -14 -8.5 -24t-22.5 -10h-109q-14 0 -24 8.5t-11 25.5l24 1392
q0 14 9.5 23t23.5 9h62q14 -1 23 -10.5t9 -22.5l8 -510q0 -12 12 -16.5t20 3.5q65 78 155.5 125.5t205.5 47.5q60 0 115 -21.5t96.5 -61t66 -94t24.5 -120.5z" />
    <glyph glyph-name="i" unicode="i" horiz-adv-x="366" 
d="M266 33q0 -14 -9 -22.5t-23 -10.5h-111q-13 0 -23 9.5t-10 24.5l18 989q0 14 9 23t23 9h76q14 0 23 -9t10 -24zM146 1259q-14 0 -23.5 9t-9.5 23l2 136q0 14 9 22.5t22 8.5h65q13 0 22 -9t9 -23l3 -135q0 -14 -9.5 -23t-23.5 -9h-66z" />
    <glyph glyph-name="j" unicode="j" horiz-adv-x="474" 
d="M391 -248q0 -44 -14.5 -79t-40 -60.5t-60 -39t-74.5 -13.5h-103q-15 0 -24.5 9.5t-9.5 24.5v77q0 15 9.5 24.5t24.5 9.5q57 0 82 19.5t26 53.5l22 1245q0 13 9 22.5t23 9.5h75q14 0 23.5 -9.5t9.5 -23.5zM267 1259q-14 0 -23.5 9t-9.5 23l2 136q0 14 9 22.5t22 8.5h65
q13 0 22 -9t9 -23l3 -135q0 -14 -9.5 -23t-23.5 -9h-66z" />
    <glyph glyph-name="k" unicode="k" horiz-adv-x="1048" 
d="M962 53q13 -18 4.5 -35.5t-29.5 -17.5h-109q-18 0 -28 15l-378 491q-6 8 -14.5 8t-15.5 -7l-129 -126q-6 -6 -6 -15l5 -332q0 -14 -8.5 -24t-22.5 -10h-109q-14 0 -24 8.5t-11 25.5l24 1392q0 14 9.5 23t23.5 9h63q13 -1 22 -10.5t9 -22.5l14 -801q0 -15 12 -17.5t21 4.5
l491 435q9 9 23 9h82q12 0 19.5 -6t10.5 -14.5t1 -18t-9 -16.5l-387 -373q-10 -13 -1 -28z" />
    <glyph glyph-name="l" unicode="l" horiz-adv-x="425" 
d="M295 34q0 -14 -9 -24t-22 -10h-109q-14 0 -24.5 8.5t-10.5 25.5l24 1392q0 14 9.5 23t23.5 9h62q14 -1 23 -10.5t9 -22.5z" />
    <glyph glyph-name="m" unicode="m" horiz-adv-x="1697" 
d="M955 34q0 -14 -9.5 -24t-23.5 -10h-107q-14 0 -24.5 8.5t-11.5 23.5l13 690q-2 46 -16.5 86.5t-41 71t-64.5 48t-85 17.5q-59 0 -118 -29t-106.5 -73.5t-77 -99t-30.5 -105.5l10 -604q0 -14 -8.5 -24t-22.5 -10h-109q-14 0 -24 8.5t-11 25.5l17 988q0 15 9.5 24t23.5 9
h75q14 0 23.5 -9.5t9.5 -23.5l1 -107q0 -12 12 -16.5t20 3.5q65 78 155 125.5t202 47.5q46 0 87.5 -12.5t76.5 -34.5t62.5 -52.5t44.5 -66.5q5 -9 14 -11t20 7q61 77 150 123.5t204 46.5q60 0 114 -21.5t95.5 -61t66 -94t25.5 -120.5l14 -744q0 -14 -9.5 -24t-23.5 -10h-107
q-14 0 -25 8.5t-11 25.5l12 693q-2 45 -16.5 85t-41 69.5t-63.5 46.5t-83 17q-41 0 -93 -19.5t-97.5 -57t-76.5 -92.5t-31 -127z" />
    <glyph glyph-name="n" unicode="n" horiz-adv-x="1041" 
d="M954 34q0 -14 -9.5 -24t-23.5 -10h-107q-14 0 -25 8.5t-11 25.5l13 693q-2 45 -16.5 85t-41 69.5t-64 46.5t-83.5 17q-58 0 -117 -28.5t-107 -73.5t-78.5 -99.5t-31.5 -105.5l10 -604q0 -14 -8.5 -24t-22.5 -10h-109q-14 0 -24 8.5t-11 25.5l17 988q0 15 9.5 24t23.5 9
h75q14 0 23.5 -9.5t9.5 -23.5l1 -107q0 -12 12 -16.5t20 3.5q65 78 155.5 125.5t205.5 47.5q60 0 115 -21.5t96.5 -61t66 -94t24.5 -120.5z" />
    <glyph glyph-name="o" unicode="o" horiz-adv-x="1180" 
d="M591 -21q-113 0 -206.5 43.5t-160.5 118.5t-104 175t-37 212q0 110 37 209t104 174t160.5 119.5t206.5 44.5q112 0 205 -44.5t160 -119.5t104 -174t37 -209q0 -112 -37.5 -212t-104.5 -175t-160 -118.5t-204 -43.5zM949 528q0 77 -26 151.5t-73 133.5t-113 95.5
t-146 36.5q-83 0 -149.5 -35t-113.5 -92t-72 -130.5t-25 -150.5q0 -92 28 -167.5t77 -129t114.5 -82.5t140.5 -29q72 0 136 28t113 79.5t78 125.5t31 166z" />
    <glyph glyph-name="p" unicode="p" horiz-adv-x="1192" 
d="M105 1022q0 14 9.5 23.5t25.5 9.5h73q15 0 24.5 -9.5t9.5 -23.5l1 -105q0 -15 13.5 -19t21.5 6q28 35 66 66t82 54.5t93.5 37t101.5 13.5q108 0 198.5 -41.5t156 -115t102 -173.5t36.5 -217q0 -112 -37 -212t-103.5 -175t-159 -118.5t-203.5 -43.5q-47 0 -94 12.5
t-89.5 33t-78 47t-60.5 55.5q-11 14 -23.5 10t-12.5 -21l6 -521q0 -15 -9.5 -25t-24.5 -10h-110q-14 0 -23 10t-9 25zM248 541q0 -87 24.5 -162t71.5 -130.5t115 -87.5t156 -32q78 0 142 35t109.5 92.5t70.5 130.5t25 148q0 80 -23 154t-66.5 131t-105.5 91t-140 34
q-80 0 -149.5 -30t-120.5 -84t-80 -128t-29 -162z" />
    <glyph glyph-name="q" unicode="q" horiz-adv-x="1181" 
d="M1094 -405q0 -15 -9 -25t-23 -10h-110q-15 0 -24.5 10t-9.5 25l6 521q0 17 -12.5 21t-23.5 -10q-25 -29 -59 -55.5t-74.5 -47t-86 -33t-92.5 -12.5q-112 0 -204.5 43.5t-159 118.5t-103 175t-36.5 212q0 117 37 217t103 173.5t156.5 115t198.5 41.5q52 0 99.5 -13.5
t89.5 -37t77.5 -54.5t64.5 -66q8 -10 21.5 -6t13.5 19l1 105q0 14 9.5 23.5t24.5 9.5h72q16 0 25.5 -9.5t9.5 -23.5zM933 541q0 88 -28 162t-77.5 128t-116.5 84t-144 30q-78 0 -140 -34t-106 -91t-67.5 -131t-23.5 -154q0 -75 25 -148t70.5 -130.5t109.5 -92.5t142 -35
q84 0 150 32t112 87.5t70 130.5t24 162z" />
    <glyph glyph-name="r" unicode="r" horiz-adv-x="697" 
d="M628 948q0 -13 -9 -23t-23 -10q-67 0 -128 -20.5t-107.5 -57.5t-75.5 -88.5t-32 -113.5l10 -601q0 -14 -9 -24t-23 -10h-108q-14 0 -24.5 8.5t-11.5 25.5l18 988q0 15 9 24t23 9h76q14 0 23 -9.5t10 -23.5l2 -107q0 -13 11 -17.5t19 3.5q29 36 64 67.5t74.5 55t84 37.5
t91.5 14q16 0 26 -8t10 -25v-94z" />
    <glyph glyph-name="s" unicode="s" horiz-adv-x="1035" 
d="M153 785q0 71 29 125t77.5 90.5t113 55t135.5 19.5q67 0 128.5 -14.5t113.5 -45.5t91.5 -80t62.5 -118q3 -10 1 -16.5t-7.5 -10.5t-12.5 -6t-13 -2h-84q-20 0 -30 18q-32 75 -98.5 110t-153.5 35q-38 0 -77 -8.5t-70.5 -27.5t-52 -48t-20.5 -71q0 -46 28.5 -75t75.5 -49
t107 -34t122.5 -30.5t122.5 -38t107 -56t75.5 -85.5t28.5 -126q0 -80 -31.5 -139.5t-87 -99t-130.5 -59t-163 -19.5q-71 0 -139.5 17.5t-127.5 53.5t-106 92.5t-75 134.5q-5 14 -4 21.5t5 11t10.5 4t12.5 0.5h98q19 0 31 -22q17 -34 43.5 -63.5t62 -51.5t80.5 -35t99 -13
q52 0 99 11.5t82 33t55.5 53t20.5 72.5q0 44 -27.5 73t-72 49.5t-101.5 35.5t-116.5 31.5t-116.5 38t-101.5 55.5t-72 83t-27.5 120z" />
    <glyph glyph-name="t" unicode="t" horiz-adv-x="635" 
d="M566 963q0 -13 -9 -22.5t-22 -9.5h-133q-8 0 -14 -6t-6 -14l14 -877q0 -15 -9.5 -24.5t-24.5 -9.5h-108q-14 0 -23.5 9.5t-9.5 24.5l15 877q0 8 -6 14t-14 6h-112q-14 0 -23.5 9.5t-9.5 23.5l1 57q0 14 9.5 22.5t22.5 8.5h115q8 0 14 6.5t6 15.5l6 349q0 16 9 25.5
t26 9.5h60q14 0 23 -9.5t9 -23.5l6 -351q0 -9 6 -15.5t15 -6.5h133q14 0 23.5 -9t9.5 -22z" />
    <glyph glyph-name="u" unicode="u" horiz-adv-x="1040" 
d="M953 33q0 -14 -9 -23.5t-23 -9.5h-111q-13 0 -23 9.5t-10 24.5l1 81q0 17 -12 20t-20 -8q-52 -64 -126.5 -106t-165.5 -42q-89 0 -157.5 32t-115 86t-70 125t-21.5 149l13 652q0 14 9 23t22 9h77q14 0 23.5 -9t9.5 -24l11 -648q5 -118 62.5 -181.5t154.5 -63.5
q53 0 108 19t100 56.5t74 93.5t30 129l11 595q0 14 9 23.5t23 9.5h77q14 0 23 -9.5t9 -24.5z" />
    <glyph glyph-name="v" unicode="v" horiz-adv-x="1081" 
d="M968 1055q17 0 26 -13.5t4 -28.5l-366 -992q-8 -21 -30 -21h-133q-25 0 -32 21l-354 991q-5 17 4 30t26 13h76q11 0 20 -6.5t12 -15.5l296 -818q6 -14 18.5 -12.5t17.5 12.5l307 818q7 22 31 22h77z" />
    <glyph glyph-name="w" unicode="w" horiz-adv-x="1593" 
d="M1476 1055q18 0 26 -13.5t5 -28.5l-287 -990q-6 -23 -31 -23h-130q-25 0 -34 23l-208 753q-5 16 -19 15t-18 -15l-201 -753q-8 -23 -31 -23h-130q-25 0 -34 23l-297 989q-4 17 4 30t26 13h76q25 0 32 -22l237 -818q5 -11 17.5 -11.5t17.5 11.5l228 813q3 12 13 19.5
t22 7.5h74q26 0 34 -26l235 -814q6 -11 18.5 -12t17.5 12l230 818q7 22 31 22h76z" />
    <glyph glyph-name="x" unicode="x" horiz-adv-x="1134" 
d="M1035 52q6 -8 6.5 -17t-3 -17t-10.5 -13t-17 -5h-112q-17 0 -27 15l-289 375q-8 9 -16.5 8.5t-14.5 -8.5l-289 -376q-11 -14 -28 -14h-111q-11 0 -18.5 5.5t-10.5 13.5t-1.5 17.5t7.5 17.5l368 465q5 5 4.5 11.5t-3.5 11.5l-310 463q-5 7 -5.5 16t3 16.5t11 12.5t17.5 5
h77q17 0 28 -15l261 -392q16 -18 31 0l263 393q12 14 28 14h78q10 0 17 -5t10.5 -13t3 -17t-6.5 -16l-310 -461q-5 -5 -4.5 -12t5.5 -12z" />
    <glyph glyph-name="y" unicode="y" horiz-adv-x="1079" 
d="M970 1055q17 0 26 -13.5t4 -28.5l-514 -1430q-4 -11 -12.5 -17t-19.5 -6h-112q-18 0 -26 15t-1 31l142 348q3 8 1 16l-373 1042q-5 17 4 30t26 13h76q25 0 32 -22l296 -818q6 -14 18.5 -12.5t17.5 12.5l307 818q7 22 31 22h77z" />
    <glyph glyph-name="z" unicode="z" horiz-adv-x="1000" 
d="M917 31q0 -13 -9 -22t-23 -9h-768q-14 0 -24 10t-10 24l2 83q0 13 9 24l606 760q8 11 2 21t-17 10h-551q-14 0 -23.5 9.5t-9.5 23.5l1 58q0 14 9.5 23t23.5 9h731q14 0 23 -9.5t9 -23.5l2 -60q0 -11 -8 -22l-570 -777q-7 -11 -0.5 -21t17.5 -10h544q14 0 23.5 -9t9.5 -23
z" />
    <glyph glyph-name="braceleft" unicode="{" horiz-adv-x="685" 
d="M610 -410q0 -30 -33 -30h-110q-59 0 -107 21.5t-81.5 59t-52 87t-18.5 106.5l-2 524q0 31 -10 54.5t-26.5 40.5t-37 27.5t-40.5 16.5q-7 2 -12 7.5t-5 13.5v83q0 18 21 23q22 4 42 16.5t35 30t24 40t9 47.5v438q0 56 21 104t56.5 83t83 55t100.5 20h110q14 0 23.5 -8
t9.5 -22v-68q-3 -30 -33 -31h-98q-33 -3 -59 -16.5t-44.5 -35.5t-28 -49.5t-9.5 -58.5v-449q0 -49 -24.5 -86t-62.5 -57q-14 -6 -12.5 -17.5t12.5 -17.5q40 -19 63.5 -58.5t23.5 -86.5v-548q0 -30 9.5 -58t28 -50t44.5 -35.5t59 -16.5h100q13 0 22 -8t9 -23v-68z" />
    <glyph glyph-name="bar" unicode="|" horiz-adv-x="305" 
d="M218 -409q0 -13 -9 -22t-23 -9h-66q-13 0 -22.5 8.5t-9.5 22.5v1968q0 14 9 23t23 9h66q14 0 23 -9t9 -23v-1968z" />
    <glyph glyph-name="braceright" unicode="}" horiz-adv-x="695" 
d="M85.0371 -410q0 -30 32.998 -30h109.993q58.9971 0 106.993 21.5q47.998 21.5 81.4951 59q33.498 37.5 51.9971 87t18.499 106.5l2 524q0 31 9.99902 54.5q10 23.5 26.499 40.5t36.9971 27.5q20.499 10.5 40.498 16.5q6.99902 2 11.999 7.5t5 13.5v83q0 18 -20.999 23
q-21.999 4 -41.9971 16.5q-19.999 12.5 -34.998 30t-23.999 40q-8.99902 22.5 -8.99902 47.5v438q0 56 -20.999 104q-20.998 48 -56.4961 83t-82.9951 55t-100.494 20h-109.993q-13.999 0 -23.498 -8q-9.5 -8 -9.5 -22v-68q3 -30 32.998 -31h97.9941
q32.998 -3 58.9961 -16.5q25.999 -13.5 44.4971 -35.5q18.499 -22 27.999 -49.5q9.49902 -27.5 9.49902 -58.5v-449q0 -49 24.499 -86q24.498 -37 62.4961 -57q13.999 -6 12.499 -17.5t-12.499 -17.5q-39.998 -19 -63.4961 -58.5q-23.499 -39.5 -23.499 -86.5v-548
q0 -30 -9.49902 -58q-9.5 -28 -27.999 -50q-18.498 -22 -44.4971 -35.5q-25.998 -13.5 -58.9961 -16.5h-99.9941q-12.999 0 -21.998 -8q-9 -8 -9 -23v-68z" />
    <glyph glyph-name="exclamdown" unicode="&#xa1;" horiz-adv-x="406" 
d="M261 -407q0 -14 -9.5 -23.5t-23.5 -9.5h-64q-16 0 -25 9.5t-9 25.5l-17 1028q0 15 9.5 24t24.5 9h99q14 0 23 -9t9 -24zM293 886q-1 -14 -10 -24t-23 -10h-125q-14 0 -23.5 10t-9.5 24l-2 135q0 14 9 24t23 10h131q15 0 24 -10t9 -24z" />
    <glyph glyph-name="sterling" unicode="&#xa3;" horiz-adv-x="1127" 
d="M1049 34q0 -14 -9 -24t-25 -10h-897q-13 1 -23 9t-10 22l4 158q0 16 7.5 24.5t15.5 13.5q46 27 84.5 70.5t63.5 96t33 111t-7 115.5q-3 15 -20 15h-140q-13 0 -21 8.5t-8 22.5v73q0 12 8 19.5t22 7.5h56q12 0 17.5 11.5t-2.5 19.5q-17 25 -33 56t-28 66.5t-19 76t-5 85.5
q3 96 43.5 167t104.5 118t144.5 70t162.5 23q81 0 155.5 -22.5t134.5 -67.5t103 -112.5t62 -157.5q4 -14 -7.5 -23t-26.5 -9h-89q-17 0 -24.5 10.5t-9.5 20.5q-11 53 -36 97t-65 75.5t-95.5 48.5t-127.5 17q-47 0 -97 -17t-91 -50t-67 -82t-26 -113q0 -43 9.5 -82.5
t25.5 -76.5t36.5 -72t41.5 -68q6 -7 17 -9h270q11 0 20 -6.5t9 -20.5l1 -77q0 -12 -7.5 -19t-18.5 -8h-197q-20 0 -20 -26q8 -63 0 -125t-28.5 -116.5t-52 -99.5t-70.5 -75q-9 -11 -4.5 -21t17.5 -11h703q14 0 24 -8.5t10 -23.5z" />
    <glyph glyph-name="copyright" unicode="&#xa9;" horiz-adv-x="1661" 
d="M831 1480q103 0 198.5 -26.5t179 -75.5t151.5 -117t117 -151.5t75.5 -179t26.5 -198.5q0 -104 -26.5 -199.5t-75.5 -178.5t-117 -151t-151.5 -117t-179 -75.5t-198.5 -26.5q-104 0 -199.5 26.5t-178.5 75.5t-151 117t-117 151t-75.5 178.5t-26.5 199.5q0 103 26.5 198.5
t75.5 179t117 151.5t151 117t178.5 75.5t199.5 26.5zM831 107q86 0 166 22.5t149.5 63t126.5 97.5t97.5 126.5t63 149.5t22.5 166t-22.5 166t-63 149.5t-97.5 126.5t-126.5 97.5t-149.5 63t-166 22.5q-87 0 -167 -22.5t-149.5 -63t-126.5 -97.5t-97.5 -126.5t-63 -149.5
t-22.5 -166t22.5 -166t63 -149.5t97.5 -126.5t126.5 -97.5t150 -63t166.5 -22.5zM1224 568q-18 -57 -53.5 -107.5t-84.5 -87.5t-110.5 -58.5t-132.5 -21.5q-90 0 -165.5 33t-129.5 91.5t-84.5 138.5t-30.5 175t30.5 175.5t85.5 139t130 91.5t164 33q57 0 110 -15t99.5 -44
t85 -71t64.5 -95q8 -15 -1.5 -27t-23.5 -12h-76q-16 0 -25 15q-34 66 -96 104t-137 38q-66 0 -119.5 -27t-91 -72t-58 -103.5t-20.5 -122.5q0 -74 21.5 -134t60 -102.5t91.5 -65.5t116 -23q84 0 151.5 45.5t104.5 129.5q8 18 27 18h72q17 0 23.5 -12t2.5 -26z" />
    <glyph glyph-name="guillemotleft" unicode="&#xab;" horiz-adv-x="863" 
d="M225 582q-9 -7 -9.5 -17t9.5 -16l184 -124q19 -12 19 -33v-55q0 -17 -15 -25.5t-29 -0.5l-285 191q-9 5 -15 11t-6 20v69q0 10 6 18t15 13l285 167q16 10 30 -1t14 -27v-50q0 -20 -19 -30zM575 582q-9 -7 -9.5 -17t9.5 -16l183 -124q19 -12 19 -33v-55q0 -17 -14.5 -25.5
t-28.5 -0.5l-286 191q-9 5 -14.5 11t-5.5 20v69q0 19 20 31l286 167q16 10 29.5 -1t13.5 -27v-50q0 -20 -19 -30z" />
    <glyph glyph-name="degree" unicode="&#xb0;" horiz-adv-x="724" 
d="M363 1458q58 0 108.5 -21.5t88 -59.5t59.5 -89t22 -110q0 -58 -22 -108.5t-59.5 -88t-88 -59t-108.5 -21.5t-109 21.5t-89 59t-60 88t-22 108.5q0 59 22 110t60 89t89 59.5t109 21.5zM363 1006q36 0 67.5 13.5t55 37t37 54.5t13.5 67q0 37 -13.5 68.5t-37 55t-55 37
t-67.5 13.5t-67.5 -13.5t-55 -37t-37 -55t-13.5 -68.5q0 -36 13.5 -67t37 -54.5t55 -37t67.5 -13.5z" />
    <glyph glyph-name="guillemotright" unicode="&#xbb;" horiz-adv-x="924" 
d="M694.014 582q9 -7 9.5 -17q0.499023 -10 -9.5 -16l-183.988 -124q-18.999 -12 -18.999 -33v-55q0 -17 14.999 -25.5t28.998 -0.5l284.982 191q9 5 14.999 11q6 6 6 20v69q0 10 -6 18q-5.99902 8 -14.999 13l-284.982 167q-15.999 10 -29.998 -1t-13.999 -27v-50
q0 -20 18.999 -30zM344.035 582q8.99902 -7 9.49902 -17t-9.49902 -16l-182.989 -124q-18.998 -12 -18.998 -33v-55q0 -17 14.499 -25.5t28.498 -0.5l285.982 191q8.99902 5 14.499 11t5.5 20v69q0 19 -19.999 31l-285.982 167q-15.999 10 -29.498 -1t-13.499 -27v-50
q0 -20 18.998 -30z" />
    <glyph glyph-name="questiondown" unicode="&#xbf;" horiz-adv-x="1107" 
d="M220 -6q0 -66 25.5 -118t69.5 -88t101.5 -54.5t122.5 -18.5q55 0 108 16.5t97.5 48t77 76t46.5 101.5q4 15 12.5 25t22.5 10h91q7 0 14.5 -1.5t12.5 -6t6.5 -12.5t-1.5 -22q-24 -97 -75 -167t-118.5 -115.5t-147 -67.5t-161.5 -22q-95 0 -176.5 30.5t-142.5 85.5
t-95.5 132t-34.5 171q0 65 17 119t46.5 99t68.5 82.5t83.5 70t92 61.5t92.5 58q10 6 10 17l-2 120q0 15 9 24t23 10h97q17 0 26.5 -9.5t9.5 -24.5l-3 -177q0 -21 -18 -31q-83 -50 -157 -97t-129.5 -97.5t-88 -106t-32.5 -121.5zM620 886q-1 -14 -10 -24t-23 -10h-125
q-14 0 -23.5 10t-9.5 24l-2 135q0 14 9 24t23 10h131q15 0 24 -10t9 -24z" />
    <glyph glyph-name="Agrave" unicode="&#xc0;" horiz-adv-x="1396" 
d="M1350 42q7 -17 -3.5 -29t-24.5 -13h-109q-25 0 -32 25l-147 402q-9 25 -36 25h-559q-25 0 -35 -23l-151 -406q-8 -22 -30 -23h-108q-20 0 -28 13t0 33l564 1394q3 8 9.5 13t17.5 5h80q22 0 30 -21zM956 639l-211 573q-4 11 -11.5 16t-15.5 5t-15 -5.5t-10 -15.5
l-211 -573q-6 -17 2 -26.5t25 -9.5h420q17 0 24.5 11t2.5 25zM516 1793q-7 7 -7.5 15.5t3 16.5t11 13.5t16.5 5.5h75q22 -3 30 -17l124 -208q7 -13 4 -24t-11.5 -17t-19.5 -6t-20 10z" />
    <glyph glyph-name="Aacute" unicode="&#xc1;" horiz-adv-x="1396" 
d="M1350 42q7 -17 -3.5 -29t-24.5 -13h-109q-25 0 -32 25l-147 402q-9 25 -36 25h-559q-25 0 -35 -23l-151 -406q-8 -22 -30 -23h-108q-20 0 -28 13t0 33l564 1394q3 8 9.5 13t17.5 5h80q22 0 30 -21zM956 639l-211 573q-4 11 -11.5 16t-15.5 5t-15 -5.5t-10 -15.5
l-211 -573q-6 -17 2 -26.5t25 -9.5h420q17 0 24.5 11t2.5 25zM723 1583q-9 -11 -20 -11t-19.5 6t-11.5 17.5t4 24.5l124 208q8 14 30 17h76q11 0 18 -5.5t10 -13.5t1.5 -17t-7.5 -15z" />
    <glyph glyph-name="Acircumflex" unicode="&#xc2;" horiz-adv-x="1396" 
d="M1350 42q7 -17 -3.5 -29t-24.5 -13h-109q-25 0 -32 25l-147 402q-9 25 -36 25h-559q-25 0 -35 -23l-151 -406q-8 -22 -30 -23h-108q-20 0 -28 13t0 33l564 1394q3 8 9.5 13t17.5 5h80q22 0 30 -21zM956 639l-211 573q-4 11 -11.5 16t-15.5 5t-15 -5.5t-10 -15.5
l-211 -573q-6 -17 2 -26.5t25 -9.5h420q17 0 24.5 11t2.5 25zM949 1623q16 -16 8.5 -33.5t-28.5 -17.5h-75q-19 0 -29 16l-120 196q-4 8 -11.5 7.5t-10.5 -7.5l-120 -196q-10 -16 -31 -16h-74q-23 0 -28.5 18t8.5 33l199 208q11 13 28 13h58q14 0 25 -13z" />
    <glyph glyph-name="Atilde" unicode="&#xc3;" horiz-adv-x="1396" 
d="M1350 42q7 -17 -3.5 -29t-24.5 -13h-109q-25 0 -32 25l-147 402q-9 25 -36 25h-559q-25 0 -35 -23l-151 -406q-8 -22 -30 -23h-108q-20 0 -28 13t0 33l564 1394q3 8 9.5 13t17.5 5h80q22 0 30 -21zM956 639l-211 573q-4 11 -11.5 16t-15.5 5t-15 -5.5t-10 -15.5
l-211 -573q-6 -17 2 -26.5t25 -9.5h420q17 0 24.5 11t2.5 25zM946 1712q-1 -33 -13 -62t-32.5 -50.5t-48.5 -33.5t-59 -12q-39 0 -67 14.5t-52 32.5t-49.5 32.5t-60.5 14.5q-41 0 -73 -21.5t-56 -53.5q-8 -8 -20.5 -5.5t-12.5 14.5q0 33 11.5 63t32.5 53.5t50.5 37
t65.5 13.5q39 0 63.5 -14.5t47 -31.5t49.5 -31.5t71 -14.5q41 0 70.5 20.5t51.5 43.5q3 5 8.5 7t10.5 0.5t8.5 -5.5t3.5 -11z" />
    <glyph glyph-name="Adieresis" unicode="&#xc4;" horiz-adv-x="1396" 
d="M838 1573q-14 0 -23.5 9t-9.5 23l2 136q0 14 9 22.5t22 8.5h65q13 0 22 -9t9 -23l3 -135q0 -14 -9.5 -23t-23.5 -9h-66zM555 1573q-14 0 -23.5 9t-9.5 23l2 136q0 14 9 22.5t22 8.5h65q13 0 22 -9t9 -23l3 -135q0 -14 -9.5 -23t-23.5 -9h-66zM1350 42q7 -17 -3.5 -29
t-24.5 -13h-109q-25 0 -32 25l-147 402q-9 25 -36 25h-559q-25 0 -35 -23l-151 -406q-8 -22 -30 -23h-108q-20 0 -28 13t0 33l564 1394q3 8 9.5 13t17.5 5h80q22 0 30 -21zM956 639l-211 573q-4 11 -11.5 16t-15.5 5t-15 -5.5t-10 -15.5l-211 -573q-6 -17 2 -26.5t25 -9.5
h420q17 0 24.5 11t2.5 25z" />
    <glyph glyph-name="Ccedilla" unicode="&#xc7;" horiz-adv-x="1514" 
d="M822 -12q-8 0 -15.5 -3t-8.5 -13q-1 -9 -1.5 -23.5t-0.5 -32.5q0 -10 3 -15t12 -9q21 -8 39 -22.5t32 -35t22 -45t8 -52.5q0 -39 -11.5 -71.5t-33 -56t-52 -36.5t-67.5 -13q-29 0 -55.5 9.5t-48 27t-36 42t-18.5 54.5q-2 22 20 22h46q16 0 21 -14q6 -26 26 -41t45 -15
q22 0 36.5 8.5t23 21.5t12 29.5t3.5 32.5q0 34 -17 60.5t-55 26.5q-16 1 -23.5 -5t-17.5 -6q-8 0 -13.5 6.5t-5.5 14.5l4 130q1 15 -7 21t-19 8q-138 18 -247.5 85t-185.5 166t-116.5 223t-40.5 257q0 158 49 295.5t140 239.5t219 161t286 59q114 0 213.5 -31.5t180 -86.5
t140.5 -129.5t95 -161.5q8 -20 -1.5 -35t-29.5 -15h-88q-14 0 -22 6t-15 19q-36 66 -82.5 120t-105 93t-129.5 60.5t-156 21.5q-115 0 -213 -45.5t-169.5 -125t-112 -188.5t-40.5 -236q0 -130 41.5 -242t113.5 -194.5t169.5 -129.5t210.5 -47q88 0 164 28t138.5 76.5
t111 115t80.5 143.5q5 11 12.5 19t22.5 8h99q12 0 19 -5.5t10.5 -13.5t3 -17.5t-3.5 -18.5q-47 -133 -118 -223.5t-153.5 -146.5t-170 -81.5t-166.5 -27.5z" />
    <glyph glyph-name="Egrave" unicode="&#xc8;" horiz-adv-x="1162" 
d="M1059 34q0 -15 -10 -24.5t-24 -9.5h-904q-15 0 -24.5 10t-9.5 24l24 1390q0 14 8.5 24t22.5 10h861q13 0 21 -8.5t8 -20.5l1 -85q0 -12 -6.5 -21t-20.5 -9h-732q-14 -1 -21 -9.5t-7 -20.5l7 -406q0 -13 8 -21t20 -8h661q12 0 20.5 -8t8.5 -21l1 -86q0 -13 -8.5 -21.5
t-20.5 -8.5h-657q-14 0 -21.5 -8t-7.5 -21l8 -488q0 -11 8 -19t20 -8h728q15 0 25 -7.5t11 -21.5zM413 1793q-7 7 -7.5 15.5t3 16.5t11 13.5t16.5 5.5h75q22 -3 30 -17l124 -208q7 -13 4 -24t-11.5 -17t-19.5 -6t-20 10z" />
    <glyph glyph-name="Eacute" unicode="&#xc9;" horiz-adv-x="1162" 
d="M1059 34q0 -15 -10 -24.5t-24 -9.5h-904q-15 0 -24.5 10t-9.5 24l24 1390q0 14 8.5 24t22.5 10h861q13 0 21 -8.5t8 -20.5l1 -85q0 -12 -6.5 -21t-20.5 -9h-732q-14 -1 -21 -9.5t-7 -20.5l7 -406q0 -13 8 -21t20 -8h661q12 0 20.5 -8t8.5 -21l1 -86q0 -13 -8.5 -21.5
t-20.5 -8.5h-657q-14 0 -21.5 -8t-7.5 -21l8 -488q0 -11 8 -19t20 -8h728q15 0 25 -7.5t11 -21.5zM634 1583q-9 -11 -20 -11t-19.5 6t-11.5 17.5t4 24.5l124 208q8 14 30 17h76q11 0 18 -5.5t10 -13.5t1.5 -17t-7.5 -15z" />
    <glyph glyph-name="Ecircumflex" unicode="&#xca;" horiz-adv-x="1162" 
d="M1059 34q0 -15 -10 -24.5t-24 -9.5h-904q-15 0 -24.5 10t-9.5 24l24 1390q0 14 8.5 24t22.5 10h861q13 0 21 -8.5t8 -20.5l1 -85q0 -12 -6.5 -21t-20.5 -9h-732q-14 -1 -21 -9.5t-7 -20.5l7 -406q0 -13 8 -21t20 -8h661q12 0 20.5 -8t8.5 -21l1 -86q0 -13 -8.5 -21.5
t-20.5 -8.5h-657q-14 0 -21.5 -8t-7.5 -21l8 -488q0 -11 8 -19t20 -8h728q15 0 25 -7.5t11 -21.5zM845 1623q16 -16 8.5 -33.5t-28.5 -17.5h-75q-19 0 -29 16l-120 196q-4 8 -11.5 7.5t-10.5 -7.5l-120 -196q-10 -16 -31 -16h-74q-23 0 -28.5 18t8.5 33l199 208q11 13 28 13
h58q14 0 25 -13z" />
    <glyph glyph-name="Edieresis" unicode="&#xcb;" horiz-adv-x="1162" 
d="M718 1573q-14 0 -23.5 9t-9.5 23l2 136q0 14 9 22.5t22 8.5h65q13 0 22 -9t9 -23l3 -135q0 -14 -9.5 -23t-23.5 -9h-66zM435 1573q-14 0 -23.5 9t-9.5 23l2 136q0 14 9 22.5t22 8.5h65q13 0 22 -9t9 -23l3 -135q0 -14 -9.5 -23t-23.5 -9h-66zM1059 34q0 -15 -10 -24.5
t-24 -9.5h-904q-15 0 -24.5 10t-9.5 24l24 1390q0 14 8.5 24t22.5 10h861q13 0 21 -8.5t8 -20.5l1 -85q0 -12 -6.5 -21t-20.5 -9h-732q-14 -1 -21 -9.5t-7 -20.5l7 -406q0 -13 8 -21t20 -8h661q12 0 20.5 -8t8.5 -21l1 -86q0 -13 -8.5 -21.5t-20.5 -8.5h-657q-14 0 -21.5 -8
t-7.5 -21l8 -488q0 -11 8 -19t20 -8h728q15 0 25 -7.5t11 -21.5z" />
    <glyph glyph-name="Igrave" unicode="&#xcc;" horiz-adv-x="502" 
d="M172 34l24 1391q0 14 9.5 23.5t23.5 9.5h67q14 0 23 -9.5t9 -23.5l24 -1391q0 -14 -9.5 -24t-24.5 -10h-112q-15 0 -24.5 10t-9.5 24zM69 1793q-7 7 -7.5 15.5t3 16.5t11 13.5t16.5 5.5h75q22 -3 30 -17l124 -208q7 -13 4 -24t-11.5 -17t-19.5 -6t-20 10z" />
    <glyph glyph-name="Iacute" unicode="&#xcd;" horiz-adv-x="498" 
d="M150 34l24 1391q0 14 9.5 23.5t23.5 9.5h67q14 0 23 -9.5t9 -23.5l24 -1391q0 -14 -9.5 -24t-24.5 -10h-112q-15 0 -24.5 10t-9.5 24zM224 1583q-9 -11 -20 -11t-19.5 6t-11.5 17.5t4 24.5l124 208q8 14 30 17h76q11 0 18 -5.5t10 -13.5t1.5 -17t-7.5 -15z" />
    <glyph glyph-name="Icircumflex" unicode="&#xce;" horiz-adv-x="662" 
d="M582 1623q16 -16 8.5 -33.5t-28.5 -17.5h-75q-19 0 -29 16l-120 196q-4 8 -11.5 7.5t-10.5 -7.5l-120 -196q-10 -16 -31 -16h-74q-23 0 -28.5 18t8.5 33l199 208q11 13 28 13h58q14 0 25 -13zM236 34l24 1391q0 14 9.5 23.5t23.5 9.5h67q14 0 23 -9.5t9 -23.5l24 -1391
q0 -14 -9.5 -24t-24.5 -10h-112q-15 0 -24.5 10t-9.5 24z" />
    <glyph glyph-name="Idieresis" unicode="&#xcf;" horiz-adv-x="545" 
d="M376 1573q-14 0 -23.5 9t-9.5 23l2 136q0 14 9 22.5t22 8.5h65q13 0 22 -9t9 -23l3 -135q0 -14 -9.5 -23t-23.5 -9h-66zM94 1573q-14 0 -23.5 9t-9.5 23l2 136q0 14 9 22.5t22 8.5h65q13 0 22 -9t9 -23l3 -135q0 -14 -9.5 -23t-23.5 -9h-66zM178 34l24 1391
q0 14 9.5 23.5t23.5 9.5h67q14 0 23 -9.5t9 -23.5l24 -1391q0 -14 -9.5 -24t-24.5 -10h-112q-15 0 -24.5 10t-9.5 24z" />
    <glyph glyph-name="Ntilde" unicode="&#xd1;" horiz-adv-x="1368" 
d="M1250 34q0 -15 -10 -24.5t-24 -9.5h-147q-13 0 -19.5 5.5t-12.5 15.5l-754 1173q-7 11 -20.5 9.5t-13.5 -17.5l19 -1150q0 -14 -9 -25t-24 -11h-114q-14 0 -24 10t-10 24l24 1389q0 15 8 25t24 10h112q16 0 26 -13l760 -1157q7 -13 20.5 -9.5t13.5 18.5l18 1128
q0 14 9.5 23.5t23.5 9.5h69q14 0 22.5 -9.5t9.5 -23.5zM962 1711q-1 -33 -13 -62t-32.5 -50.5t-48.5 -33.5t-59 -12q-39 0 -67 14.5t-52 32.5t-49.5 32.5t-60.5 14.5q-41 0 -73 -21.5t-56 -53.5q-8 -8 -20.5 -5.5t-12.5 14.5q0 33 11.5 63t32.5 53.5t50.5 37t65.5 13.5
q39 0 63.5 -14.5t47 -31.5t49.5 -31.5t71 -14.5q41 0 70.5 20.5t51.5 43.5q3 5 8.5 7t10.5 0.5t8.5 -5.5t3.5 -11z" />
    <glyph glyph-name="Ograve" unicode="&#xd2;" horiz-adv-x="1538" 
d="M785 1479q151 0 279 -56.5t220.5 -155t144.5 -232.5t52 -288q0 -108 -22.5 -206.5t-65.5 -184t-104.5 -155t-139.5 -119t-171 -76.5t-198 -27q-155 0 -283 59.5t-220 163t-143 243t-51 300.5q0 156 52 290.5t145.5 233t222.5 154.5t282 56zM783 132q79 2 150 25.5
t131 64.5t108 96.5t81 123t51 144.5t18 159q0 120 -40 228t-111 189.5t-170.5 129.5t-217.5 48t-217 -47.5t-171 -129t-112 -189.5t-40 -229q0 -124 39 -234t110 -193t170.5 -133t220.5 -53zM669 1793q-7 7 -7.5 15.5t3 16.5t11 13.5t16.5 5.5h75q22 -3 30 -17l124 -208
q7 -13 4 -24t-11.5 -17t-19.5 -6t-20 10z" />
    <glyph glyph-name="Oacute" unicode="&#xd3;" horiz-adv-x="1538" 
d="M785 1479q151 0 279 -56.5t220.5 -155t144.5 -232.5t52 -288q0 -108 -22.5 -206.5t-65.5 -184t-104.5 -155t-139.5 -119t-171 -76.5t-198 -27q-155 0 -283 59.5t-220 163t-143 243t-51 300.5q0 156 52 290.5t145.5 233t222.5 154.5t282 56zM783 132q79 2 150 25.5
t131 64.5t108 96.5t81 123t51 144.5t18 159q0 120 -40 228t-111 189.5t-170.5 129.5t-217.5 48t-217 -47.5t-171 -129t-112 -189.5t-40 -229q0 -124 39 -234t110 -193t170.5 -133t220.5 -53zM726 1583q-9 -11 -20 -11t-19.5 6t-11.5 17.5t4 24.5l124 208q8 14 30 17h76
q11 0 18 -5.5t10 -13.5t1.5 -17t-7.5 -15z" />
    <glyph glyph-name="Ocircumflex" unicode="&#xd4;" horiz-adv-x="1538" 
d="M785 1479q151 0 279 -56.5t220.5 -155t144.5 -232.5t52 -288q0 -108 -22.5 -206.5t-65.5 -184t-104.5 -155t-139.5 -119t-171 -76.5t-198 -27q-155 0 -283 59.5t-220 163t-143 243t-51 300.5q0 156 52 290.5t145.5 233t222.5 154.5t282 56zM783 132q79 2 150 25.5
t131 64.5t108 96.5t81 123t51 144.5t18 159q0 120 -40 228t-111 189.5t-170.5 129.5t-217.5 48t-217 -47.5t-171 -129t-112 -189.5t-40 -229q0 -124 39 -234t110 -193t170.5 -133t220.5 -53zM1010 1623q16 -16 8.5 -33.5t-28.5 -17.5h-75q-19 0 -29 16l-120 196
q-4 8 -11.5 7.5t-10.5 -7.5l-120 -196q-10 -16 -31 -16h-74q-23 0 -28.5 18t8.5 33l199 208q11 13 28 13h58q14 0 25 -13z" />
    <glyph glyph-name="Otilde" unicode="&#xd5;" horiz-adv-x="1538" 
d="M785 1479q151 0 279 -56.5t220.5 -155t144.5 -232.5t52 -288q0 -108 -22.5 -206.5t-65.5 -184t-104.5 -155t-139.5 -119t-171 -76.5t-198 -27q-155 0 -283 59.5t-220 163t-143 243t-51 300.5q0 156 52 290.5t145.5 233t222.5 154.5t282 56zM783 132q79 2 150 25.5
t131 64.5t108 96.5t81 123t51 144.5t18 159q0 120 -40 228t-111 189.5t-170.5 129.5t-217.5 48t-217 -47.5t-171 -129t-112 -189.5t-40 -229q0 -124 39 -234t110 -193t170.5 -133t220.5 -53zM1017 1712q-1 -33 -13 -62t-32.5 -50.5t-48.5 -33.5t-59 -12q-39 0 -67 14.5
t-52 32.5t-49.5 32.5t-60.5 14.5q-41 0 -73 -21.5t-56 -53.5q-8 -8 -20.5 -5.5t-12.5 14.5q0 33 11.5 63t32.5 53.5t50.5 37t65.5 13.5q39 0 63.5 -14.5t47 -31.5t49.5 -31.5t71 -14.5q41 0 70.5 20.5t51.5 43.5q3 5 8.5 7t10.5 0.5t8.5 -5.5t3.5 -11z" />
    <glyph glyph-name="Odieresis" unicode="&#xd6;" horiz-adv-x="1538" 
d="M900 1573q-14 0 -23.5 9t-9.5 23l2 136q0 14 9 22.5t22 8.5h65q13 0 22 -9t9 -23l3 -135q0 -14 -9.5 -23t-23.5 -9h-66zM617 1573q-14 0 -23.5 9t-9.5 23l2 136q0 14 9 22.5t22 8.5h65q13 0 22 -9t9 -23l3 -135q0 -14 -9.5 -23t-23.5 -9h-66zM785 1479q151 0 279 -56.5
t220.5 -155t144.5 -232.5t52 -288q0 -108 -22.5 -206.5t-65.5 -184t-104.5 -155t-139.5 -119t-171 -76.5t-198 -27q-155 0 -283 59.5t-220 163t-143 243t-51 300.5q0 156 52 290.5t145.5 233t222.5 154.5t282 56zM783 132q79 2 150 25.5t131 64.5t108 96.5t81 123t51 144.5
t18 159q0 120 -40 228t-111 189.5t-170.5 129.5t-217.5 48t-217 -47.5t-171 -129t-112 -189.5t-40 -229q0 -124 39 -234t110 -193t170.5 -133t220.5 -53z" />
    <glyph glyph-name="Ugrave" unicode="&#xd9;" horiz-adv-x="1352" 
d="M248 574q1 -95 34 -176t89.5 -140t130.5 -92.5t158 -33.5q83 0 157.5 34t130.5 93.5t89 140.5t34 175l15 850q0 14 9.5 23.5t23.5 9.5h68q14 0 23 -9.5t9 -23.5l14 -853q-4 -124 -48 -232t-119.5 -188.5t-179 -126.5t-226.5 -46q-122 0 -225 45t-179.5 124t-121 185.5
t-48.5 229.5l13 862q0 14 9.5 23.5t23.5 9.5h68q14 0 22.5 -9.5t9.5 -23.5zM550 1793q-7 7 -7.5 15.5t3 16.5t11 13.5t16.5 5.5h75q22 -3 30 -17l124 -208q7 -13 4 -24t-11.5 -17t-19.5 -6t-20 10z" />
    <glyph glyph-name="Uacute" unicode="&#xda;" horiz-adv-x="1352" 
d="M248 574q1 -95 34 -176t89.5 -140t130.5 -92.5t158 -33.5q83 0 157.5 34t130.5 93.5t89 140.5t34 175l15 850q0 14 9.5 23.5t23.5 9.5h68q14 0 23 -9.5t9 -23.5l14 -853q-4 -124 -48 -232t-119.5 -188.5t-179 -126.5t-226.5 -46q-122 0 -225 45t-179.5 124t-121 185.5
t-48.5 229.5l13 862q0 14 9.5 23.5t23.5 9.5h68q14 0 22.5 -9.5t9.5 -23.5zM638 1583q-9 -11 -20 -11t-19.5 6t-11.5 17.5t4 24.5l124 208q8 14 30 17h76q11 0 18 -5.5t10 -13.5t1.5 -17t-7.5 -15z" />
    <glyph glyph-name="Ucircumflex" unicode="&#xdb;" horiz-adv-x="1352" 
d="M248 574q1 -95 34 -176t89.5 -140t130.5 -92.5t158 -33.5q83 0 157.5 34t130.5 93.5t89 140.5t34 175l15 850q0 14 9.5 23.5t23.5 9.5h68q14 0 23 -9.5t9 -23.5l14 -853q-4 -124 -48 -232t-119.5 -188.5t-179 -126.5t-226.5 -46q-122 0 -225 45t-179.5 124t-121 185.5
t-48.5 229.5l13 862q0 14 9.5 23.5t23.5 9.5h68q14 0 22.5 -9.5t9.5 -23.5zM923 1623q16 -16 8.5 -33.5t-28.5 -17.5h-75q-19 0 -29 16l-120 196q-4 8 -11.5 7.5t-10.5 -7.5l-120 -196q-10 -16 -31 -16h-74q-23 0 -28.5 18t8.5 33l199 208q11 13 28 13h58q14 0 25 -13z" />
    <glyph glyph-name="Udieresis" unicode="&#xdc;" horiz-adv-x="1352" 
d="M810 1573q-14 0 -23.5 9t-9.5 23l2 136q0 14 9 22.5t22 8.5h65q13 0 22 -9t9 -23l3 -135q0 -14 -9.5 -23t-23.5 -9h-66zM527 1573q-14 0 -23.5 9t-9.5 23l2 136q0 14 9 22.5t22 8.5h65q13 0 22 -9t9 -23l3 -135q0 -14 -9.5 -23t-23.5 -9h-66zM248 574q1 -95 34 -176
t89.5 -140t130.5 -92.5t158 -33.5q83 0 157.5 34t130.5 93.5t89 140.5t34 175l15 850q0 14 9.5 23.5t23.5 9.5h68q14 0 23 -9.5t9 -23.5l14 -853q-4 -124 -48 -232t-119.5 -188.5t-179 -126.5t-226.5 -46q-122 0 -225 45t-179.5 124t-121 185.5t-48.5 229.5l13 862
q0 14 9.5 23.5t23.5 9.5h68q14 0 22.5 -9.5t9.5 -23.5z" />
    <glyph glyph-name="Yacute" unicode="&#xdd;" horiz-adv-x="1170" 
d="M1106 1458q21 0 29 -17.5t-3 -34.5l-436 -672q-2 -5 -4 -9.5t-2 -9.5l12 -681q0 -14 -9.5 -24t-24.5 -10h-112q-15 0 -24.5 10t-9.5 24l11 681q0 11 -5 19l-438 676q-6 7 -5.5 15.5t5 16t12 12.5t17.5 4h81q17 0 28 -16l359 -542q9 -13 23 -13q18 0 24 14l360 539
q11 17 30 18h82zM619 1580q-9 -11 -20 -11t-19.5 6t-11.5 17.5t4 24.5l124 208q8 14 30 17h76q11 0 18 -5.5t10 -13.5t1.5 -17t-7.5 -15z" />
    <glyph glyph-name="agrave" unicode="&#xe0;" 
d="M800 781q-2 45 -24 76.5t-57 51t-79.5 28t-91.5 8.5q-40 0 -80.5 -8.5t-76 -28t-64 -51.5t-44.5 -78q-7 -20 -13 -29t-23 -11h-85q-19 0 -26 17.5t-3 33.5q13 73 57 127t104 89t130 52t135 17q75 0 143.5 -17.5t121 -55.5t84.5 -97.5t34 -142.5l12 -728q0 -15 -9.5 -24.5
t-24.5 -9.5h-102q-15 0 -24 9.5t-9 24.5l1 82q0 14 -12 17t-22 -8q-77 -79 -170 -112.5t-191 -33.5q-69 0 -125.5 25t-97.5 66.5t-63.5 95.5t-23.5 113q0 49 15 94t42 82.5t65 65t84 41.5q73 18 137 28.5t120 21.5t104 24.5t90 37.5q62 35 62 107zM232 300q0 -63 30 -101
t76.5 -55t104.5 -15t114 18.5t103.5 45t75.5 65.5q18 24 29 60.5t17 77t8.5 80t2.5 69.5q0 14 -14 13q-49 -18 -95.5 -31.5t-95 -25t-102 -23t-115.5 -24.5q-64 -14 -101.5 -55.5t-37.5 -98.5zM434 1407q-7 7 -7.5 15.5t3 16.5t11 13.5t16.5 5.5h75q22 -3 30 -17l124 -208
q7 -13 4 -24t-11.5 -17t-19.5 -6t-20 10z" />
    <glyph glyph-name="aacute" unicode="&#xe1;" 
d="M800 781q-2 45 -24 76.5t-57 51t-79.5 28t-91.5 8.5q-40 0 -80.5 -8.5t-76 -28t-64 -51.5t-44.5 -78q-7 -20 -13 -29t-23 -11h-85q-19 0 -26 17.5t-3 33.5q13 73 57 127t104 89t130 52t135 17q75 0 143.5 -17.5t121 -55.5t84.5 -97.5t34 -142.5l12 -728q0 -15 -9.5 -24.5
t-24.5 -9.5h-102q-15 0 -24 9.5t-9 24.5l1 82q0 14 -12 17t-22 -8q-77 -79 -170 -112.5t-191 -33.5q-69 0 -125.5 25t-97.5 66.5t-63.5 95.5t-23.5 113q0 49 15 94t42 82.5t65 65t84 41.5q73 18 137 28.5t120 21.5t104 24.5t90 37.5q62 35 62 107zM232 300q0 -63 30 -101
t76.5 -55t104.5 -15t114 18.5t103.5 45t75.5 65.5q18 24 29 60.5t17 77t8.5 80t2.5 69.5q0 14 -14 13q-49 -18 -95.5 -31.5t-95 -25t-102 -23t-115.5 -24.5q-64 -14 -101.5 -55.5t-37.5 -98.5zM546 1196q-9 -11 -20 -11t-19.5 6t-11.5 17.5t4 24.5l124 208q8 14 30 17h76
q11 0 18 -5.5t10 -13.5t1.5 -17t-7.5 -15z" />
    <glyph glyph-name="acircumflex" unicode="&#xe2;" 
d="M800 781q-2 45 -24 76.5t-57 51t-79.5 28t-91.5 8.5q-40 0 -80.5 -8.5t-76 -28t-64 -51.5t-44.5 -78q-7 -20 -13 -29t-23 -11h-85q-19 0 -26 17.5t-3 33.5q13 73 57 127t104 89t130 52t135 17q75 0 143.5 -17.5t121 -55.5t84.5 -97.5t34 -142.5l12 -728q0 -15 -9.5 -24.5
t-24.5 -9.5h-102q-15 0 -24 9.5t-9 24.5l1 82q0 14 -12 17t-22 -8q-77 -79 -170 -112.5t-191 -33.5q-69 0 -125.5 25t-97.5 66.5t-63.5 95.5t-23.5 113q0 49 15 94t42 82.5t65 65t84 41.5q73 18 137 28.5t120 21.5t104 24.5t90 37.5q62 35 62 107zM232 300q0 -63 30 -101
t76.5 -55t104.5 -15t114 18.5t103.5 45t75.5 65.5q18 24 29 60.5t17 77t8.5 80t2.5 69.5q0 14 -14 13q-49 -18 -95.5 -31.5t-95 -25t-102 -23t-115.5 -24.5q-64 -14 -101.5 -55.5t-37.5 -98.5zM799 1238q16 -16 8.5 -33.5t-28.5 -17.5h-75q-19 0 -29 16l-120 196
q-4 8 -11.5 7.5t-10.5 -7.5l-120 -196q-10 -16 -31 -16h-74q-23 0 -28.5 18t8.5 33l199 208q11 13 28 13h58q14 0 25 -13z" />
    <glyph glyph-name="atilde" unicode="&#xe3;" 
d="M800 781q-2 45 -24 76.5t-57 51t-79.5 28t-91.5 8.5q-40 0 -80.5 -8.5t-76 -28t-64 -51.5t-44.5 -78q-7 -20 -13 -29t-23 -11h-85q-19 0 -26 17.5t-3 33.5q13 73 57 127t104 89t130 52t135 17q75 0 143.5 -17.5t121 -55.5t84.5 -97.5t34 -142.5l12 -728q0 -15 -9.5 -24.5
t-24.5 -9.5h-102q-15 0 -24 9.5t-9 24.5l1 82q0 14 -12 17t-22 -8q-77 -79 -170 -112.5t-191 -33.5q-69 0 -125.5 25t-97.5 66.5t-63.5 95.5t-23.5 113q0 49 15 94t42 82.5t65 65t84 41.5q73 18 137 28.5t120 21.5t104 24.5t90 37.5q62 35 62 107zM232 300q0 -63 30 -101
t76.5 -55t104.5 -15t114 18.5t103.5 45t75.5 65.5q18 24 29 60.5t17 77t8.5 80t2.5 69.5q0 14 -14 13q-49 -18 -95.5 -31.5t-95 -25t-102 -23t-115.5 -24.5q-64 -14 -101.5 -55.5t-37.5 -98.5zM834 1441q-1 -33 -13 -62t-32.5 -50.5t-48.5 -33.5t-59 -12q-39 0 -67 14.5
t-52 32.5t-49.5 32.5t-60.5 14.5q-41 0 -73 -21.5t-56 -53.5q-8 -8 -20.5 -5.5t-12.5 14.5q0 33 11.5 63t32.5 53.5t50.5 37t65.5 13.5q39 0 63.5 -14.5t47 -31.5t49.5 -31.5t71 -14.5q41 0 70.5 20.5t51.5 43.5q3 5 8.5 7t10.5 0.5t8.5 -5.5t3.5 -11z" />
    <glyph glyph-name="adieresis" unicode="&#xe4;" 
d="M406 1259q-14 0 -23.5 9t-9.5 23l2 136q0 14 9 22.5t22 8.5h65q13 0 22 -9t9 -23l3 -135q0 -14 -9.5 -23t-23.5 -9h-66zM689 1259q-14 0 -23.5 9t-9.5 23l2 136q0 14 9 22.5t22 8.5h65q13 0 22 -9t9 -23l3 -135q0 -14 -9.5 -23t-23.5 -9h-66zM800 781q-2 45 -24 76.5
t-57 51t-79.5 28t-91.5 8.5q-40 0 -80.5 -8.5t-76 -28t-64 -51.5t-44.5 -78q-7 -20 -13 -29t-23 -11h-85q-19 0 -26 17.5t-3 33.5q13 73 57 127t104 89t130 52t135 17q75 0 143.5 -17.5t121 -55.5t84.5 -97.5t34 -142.5l12 -728q0 -15 -9.5 -24.5t-24.5 -9.5h-102
q-15 0 -24 9.5t-9 24.5l1 82q0 14 -12 17t-22 -8q-77 -79 -170 -112.5t-191 -33.5q-69 0 -125.5 25t-97.5 66.5t-63.5 95.5t-23.5 113q0 49 15 94t42 82.5t65 65t84 41.5q73 18 137 28.5t120 21.5t104 24.5t90 37.5q62 35 62 107zM232 300q0 -63 30 -101t76.5 -55t104.5 -15
t114 18.5t103.5 45t75.5 65.5q18 24 29 60.5t17 77t8.5 80t2.5 69.5q0 14 -14 13q-49 -18 -95.5 -31.5t-95 -25t-102 -23t-115.5 -24.5q-64 -14 -101.5 -55.5t-37.5 -98.5z" />
    <glyph glyph-name="ccedilla" unicode="&#xe7;" horiz-adv-x="1142" 
d="M645 -14q-11 -1 -18 -5.5t-7 -14.5q0 -30 0.5 -48.5t13.5 -25.5q21 -8 39.5 -22.5t32.5 -35t22 -45t8 -52.5q0 -39 -11.5 -71.5t-33 -56t-52 -36.5t-67.5 -13q-29 0 -55.5 9.5t-48 27t-36 42t-18.5 54.5q-2 22 20 22h46q16 0 21 -14q6 -26 26 -41t45 -15q22 0 36.5 8.5
t23 21.5t12 29.5t3.5 32.5q0 34 -17 60.5t-55 26.5q-15 1 -23 -5t-18 -6q-8 0 -13.5 6.5t-5.5 14.5l4 137q0 11 -9 15.5t-17 6.5q-95 15 -172 62t-131 117.5t-83 161.5t-29 194q0 122 38 223t106 173t160.5 111.5t202.5 39.5q75 0 143 -20t125.5 -56.5t103.5 -89t76 -117.5
q9 -17 -1 -32t-28 -15h-94q-12 0 -19 4t-12 14q-45 83 -119.5 132.5t-174.5 49.5q-80 0 -146 -34t-113 -90.5t-73 -130t-26 -153.5q0 -91 26 -165.5t73 -128t113 -82.5t146 -29q112 0 195.5 60t128.5 160q5 9 11.5 15t19.5 6h89q21 -2 28 -15.5t3 -27.5q-21 -71 -61 -130
t-94.5 -104t-120.5 -73.5t-139 -36.5z" />
    <glyph glyph-name="egrave" unicode="&#xe8;" horiz-adv-x="1125" 
d="M1093 558q0 -17 -10 -26.5t-23 -9.5h-808q-19 -1 -19 -22q4 -80 31 -148t73 -117.5t110 -77.5t143 -28q99 0 174 46.5t123 121.5q12 17 29 17h94q20 0 28 -17t0 -32q-32 -65 -77 -117.5t-102 -90t-124.5 -58t-143.5 -20.5q-115 0 -208.5 42.5t-160 116.5t-103 174.5
t-36.5 217.5q0 120 38 220t105.5 172.5t160.5 112.5t203 40q112 0 203 -43t156 -114.5t102 -165t42 -194.5zM904 645q11 0 16.5 7.5t1.5 18.5q-18 54 -49 103.5t-73.5 87.5t-95.5 60.5t-114 22.5t-115.5 -21.5t-98.5 -59t-76 -87.5t-48 -107q-4 -11 1.5 -18t17.5 -7h633z
M428 1407q-7 7 -7.5 15.5t3 16.5t11 13.5t16.5 5.5h75q22 -3 30 -17l124 -208q7 -13 4 -24t-11.5 -17t-19.5 -6t-20 10z" />
    <glyph glyph-name="eacute" unicode="&#xe9;" horiz-adv-x="1125" 
d="M1093 558q0 -17 -10 -26.5t-23 -9.5h-808q-19 -1 -19 -22q4 -80 31 -148t73 -117.5t110 -77.5t143 -28q99 0 174 46.5t123 121.5q12 17 29 17h94q20 0 28 -17t0 -32q-32 -65 -77 -117.5t-102 -90t-124.5 -58t-143.5 -20.5q-115 0 -208.5 42.5t-160 116.5t-103 174.5
t-36.5 217.5q0 120 38 220t105.5 172.5t160.5 112.5t203 40q112 0 203 -43t156 -114.5t102 -165t42 -194.5zM904 645q11 0 16.5 7.5t1.5 18.5q-18 54 -49 103.5t-73.5 87.5t-95.5 60.5t-114 22.5t-115.5 -21.5t-98.5 -59t-76 -87.5t-48 -107q-4 -11 1.5 -18t17.5 -7h633z
M540 1196q-9 -11 -20 -11t-19.5 6t-11.5 17.5t4 24.5l124 208q8 14 30 17h76q11 0 18 -5.5t10 -13.5t1.5 -17t-7.5 -15z" />
    <glyph glyph-name="ecircumflex" unicode="&#xea;" horiz-adv-x="1125" 
d="M1093 558q0 -17 -10 -26.5t-23 -9.5h-808q-19 -1 -19 -22q4 -80 31 -148t73 -117.5t110 -77.5t143 -28q99 0 174 46.5t123 121.5q12 17 29 17h94q20 0 28 -17t0 -32q-32 -65 -77 -117.5t-102 -90t-124.5 -58t-143.5 -20.5q-115 0 -208.5 42.5t-160 116.5t-103 174.5
t-36.5 217.5q0 120 38 220t105.5 172.5t160.5 112.5t203 40q112 0 203 -43t156 -114.5t102 -165t42 -194.5zM904 645q11 0 16.5 7.5t1.5 18.5q-18 54 -49 103.5t-73.5 87.5t-95.5 60.5t-114 22.5t-115.5 -21.5t-98.5 -59t-76 -87.5t-48 -107q-4 -11 1.5 -18t17.5 -7h633z
M838 1238q16 -16 8.5 -33.5t-28.5 -17.5h-75q-19 0 -29 16l-120 196q-4 8 -11.5 7.5t-10.5 -7.5l-120 -196q-10 -16 -31 -16h-74q-23 0 -28.5 18t8.5 33l199 208q11 13 28 13h58q14 0 25 -13z" />
    <glyph glyph-name="edieresis" unicode="&#xeb;" horiz-adv-x="1125" 
d="M424 1259q-14 0 -23.5 9t-9.5 23l2 136q0 14 9 22.5t22 8.5h65q13 0 22 -9t9 -23l3 -135q0 -14 -9.5 -23t-23.5 -9h-66zM707 1259q-14 0 -23.5 9t-9.5 23l2 136q0 14 9 22.5t22 8.5h65q13 0 22 -9t9 -23l3 -135q0 -14 -9.5 -23t-23.5 -9h-66zM1093 558q0 -17 -10 -26.5
t-23 -9.5h-808q-19 -1 -19 -22q4 -80 31 -148t73 -117.5t110 -77.5t143 -28q99 0 174 46.5t123 121.5q12 17 29 17h94q20 0 28 -17t0 -32q-32 -65 -77 -117.5t-102 -90t-124.5 -58t-143.5 -20.5q-115 0 -208.5 42.5t-160 116.5t-103 174.5t-36.5 217.5q0 120 38 220
t105.5 172.5t160.5 112.5t203 40q112 0 203 -43t156 -114.5t102 -165t42 -194.5zM904 645q11 0 16.5 7.5t1.5 18.5q-18 54 -49 103.5t-73.5 87.5t-95.5 60.5t-114 22.5t-115.5 -21.5t-98.5 -59t-76 -87.5t-48 -107q-4 -11 1.5 -18t17.5 -7h633z" />
    <glyph glyph-name="igrave" unicode="&#xec;" horiz-adv-x="426" 
d="M309 33q0 -14 -9 -22.5t-23 -10.5h-110q-14 0 -24 9.5t-10 24.5l18 989q0 14 9 23t23 9h77q13 0 22 -9t10 -24zM68 1407q-7 7 -7.5 15.5t3 16.5t11 13.5t16.5 5.5h75q22 -3 30 -17l124 -208q7 -13 4 -24t-11.5 -17t-19.5 -6t-20 10z" />
    <glyph glyph-name="iacute" unicode="&#xed;" horiz-adv-x="447" 
d="M276 33q0 -14 -9 -22.5t-23 -10.5h-111q-13 0 -23 9.5t-10 24.5l18 989q0 14 9 23t23 9h76q14 0 23 -9t10 -24zM183 1196q-9 -11 -20 -11t-19.5 6t-11.5 17.5t4 24.5l124 208q8 14 30 17h76q11 0 18 -5.5t10 -13.5t1.5 -17t-7.5 -15z" />
    <glyph glyph-name="icircumflex" unicode="&#xee;" horiz-adv-x="642" 
d="M405 33q0 -14 -9 -22.5t-23 -10.5h-110q-14 0 -24 9.5t-10 24.5l18 989q0 14 9 23t23 9h77q13 0 22 -9t10 -24zM571 1237q16 -16 8.5 -33.5t-28.5 -17.5h-75q-19 0 -29 16l-120 196q-4 8 -11.5 7.5t-10.5 -7.5l-120 -196q-10 -16 -31 -16h-74q-23 0 -28.5 18t8.5 33
l199 208q11 13 28 13h58q14 0 25 -13z" />
    <glyph glyph-name="idieresis" unicode="&#xef;" horiz-adv-x="533" 
d="M348 33q0 -14 -9 -22.5t-23 -10.5h-111q-13 0 -23 9.5t-10 24.5l18 989q0 14 9 23t23 9h76q14 0 23 -9t10 -24zM83 1259q-14 0 -23.5 9t-9.5 23l2 136q0 14 9 22.5t22 8.5h65q13 0 22 -9t9 -23l3 -135q0 -14 -9.5 -23t-23.5 -9h-66zM374 1259q-14 0 -23.5 9t-9.5 23
l2 136q0 14 9 22.5t22 8.5h65q13 0 22 -9t9 -23l3 -135q0 -14 -9.5 -23t-23.5 -9h-66z" />
    <glyph glyph-name="ntilde" unicode="&#xf1;" horiz-adv-x="1070" 
d="M963 34q0 -14 -9.5 -24t-23.5 -10h-107q-14 0 -25 8.5t-11 25.5l13 693q-2 45 -16.5 85t-41 69.5t-64 46.5t-83.5 17q-58 0 -117 -28.5t-107 -73.5t-78.5 -99.5t-31.5 -105.5l10 -604q0 -14 -8.5 -24t-22.5 -10h-109q-14 0 -24 8.5t-11 25.5l17 988q0 15 9.5 24t23.5 9
h75q14 0 23.5 -9.5t9.5 -23.5l1 -107q0 -12 12 -16.5t20 3.5q65 78 155.5 125.5t205.5 47.5q60 0 115 -21.5t96.5 -61t66 -94t24.5 -120.5zM775 1441q-1 -33 -13 -62t-32.5 -50.5t-48.5 -33.5t-59 -12q-39 0 -67 14.5t-52 32.5t-49.5 32.5t-60.5 14.5q-41 0 -73 -21.5
t-56 -53.5q-8 -8 -20.5 -5.5t-12.5 14.5q0 33 11.5 63t32.5 53.5t50.5 37t65.5 13.5q39 0 63.5 -14.5t47 -31.5t49.5 -31.5t71 -14.5q41 0 70.5 20.5t51.5 43.5q3 5 8.5 7t10.5 0.5t8.5 -5.5t3.5 -11z" />
    <glyph glyph-name="ograve" unicode="&#xf2;" horiz-adv-x="1154" 
d="M591 -21q-113 0 -206.5 43.5t-160.5 118.5t-104 175t-37 212q0 110 37 209t104 174t160.5 119.5t206.5 44.5q112 0 205 -44.5t160 -119.5t104 -174t37 -209q0 -112 -37.5 -212t-104.5 -175t-160 -118.5t-204 -43.5zM949 528q0 77 -26 151.5t-73 133.5t-113 95.5
t-146 36.5q-83 0 -149.5 -35t-113.5 -92t-72 -130.5t-25 -150.5q0 -92 28 -167.5t77 -129t114.5 -82.5t140.5 -29q72 0 136 28t113 79.5t78 125.5t31 166zM450 1407q-7 7 -7.5 15.5t3 16.5t11 13.5t16.5 5.5h75q22 -3 30 -17l124 -208q7 -13 4 -24t-11.5 -17t-19.5 -6
t-20 10z" />
    <glyph glyph-name="oacute" unicode="&#xf3;" horiz-adv-x="1154" 
d="M591 -21q-113 0 -206.5 43.5t-160.5 118.5t-104 175t-37 212q0 110 37 209t104 174t160.5 119.5t206.5 44.5q112 0 205 -44.5t160 -119.5t104 -174t37 -209q0 -112 -37.5 -212t-104.5 -175t-160 -118.5t-204 -43.5zM949 528q0 77 -26 151.5t-73 133.5t-113 95.5
t-146 36.5q-83 0 -149.5 -35t-113.5 -92t-72 -130.5t-25 -150.5q0 -92 28 -167.5t77 -129t114.5 -82.5t140.5 -29q72 0 136 28t113 79.5t78 125.5t31 166zM538 1196q-9 -11 -20 -11t-19.5 6t-11.5 17.5t4 24.5l124 208q8 14 30 17h76q11 0 18 -5.5t10 -13.5t1.5 -17
t-7.5 -15z" />
    <glyph glyph-name="ocircumflex" unicode="&#xf4;" horiz-adv-x="1154" 
d="M591 -21q-113 0 -206.5 43.5t-160.5 118.5t-104 175t-37 212q0 110 37 209t104 174t160.5 119.5t206.5 44.5q112 0 205 -44.5t160 -119.5t104 -174t37 -209q0 -112 -37.5 -212t-104.5 -175t-160 -118.5t-204 -43.5zM949 528q0 77 -26 151.5t-73 133.5t-113 95.5
t-146 36.5q-83 0 -149.5 -35t-113.5 -92t-72 -130.5t-25 -150.5q0 -92 28 -167.5t77 -129t114.5 -82.5t140.5 -29q72 0 136 28t113 79.5t78 125.5t31 166zM853 1238q16 -16 8.5 -33.5t-28.5 -17.5h-75q-19 0 -29 16l-120 196q-4 8 -11.5 7.5t-10.5 -7.5l-120 -196
q-10 -16 -31 -16h-74q-23 0 -28.5 18t8.5 33l199 208q11 13 28 13h58q14 0 25 -13z" />
    <glyph glyph-name="otilde" unicode="&#xf5;" horiz-adv-x="1154" 
d="M591 -21q-113 0 -206.5 43.5t-160.5 118.5t-104 175t-37 212q0 110 37 209t104 174t160.5 119.5t206.5 44.5q112 0 205 -44.5t160 -119.5t104 -174t37 -209q0 -112 -37.5 -212t-104.5 -175t-160 -118.5t-204 -43.5zM949 528q0 77 -26 151.5t-73 133.5t-113 95.5
t-146 36.5q-83 0 -149.5 -35t-113.5 -92t-72 -130.5t-25 -150.5q0 -92 28 -167.5t77 -129t114.5 -82.5t140.5 -29q72 0 136 28t113 79.5t78 125.5t31 166zM868 1441q-1 -33 -13 -62t-32.5 -50.5t-48.5 -33.5t-59 -12q-39 0 -67 14.5t-52 32.5t-49.5 32.5t-60.5 14.5
q-41 0 -73 -21.5t-56 -53.5q-8 -8 -20.5 -5.5t-12.5 14.5q0 33 11.5 63t32.5 53.5t50.5 37t65.5 13.5q39 0 63.5 -14.5t47 -31.5t49.5 -31.5t71 -14.5q41 0 70.5 20.5t51.5 43.5q3 5 8.5 7t10.5 0.5t8.5 -5.5t3.5 -11z" />
    <glyph glyph-name="odieresis" unicode="&#xf6;" horiz-adv-x="1154" 
d="M426 1259q-14 0 -23.5 9t-9.5 23l2 136q0 14 9 22.5t22 8.5h65q13 0 22 -9t9 -23l3 -135q0 -14 -9.5 -23t-23.5 -9h-66zM709 1259q-14 0 -23.5 9t-9.5 23l2 136q0 14 9 22.5t22 8.5h65q13 0 22 -9t9 -23l3 -135q0 -14 -9.5 -23t-23.5 -9h-66zM591 -21q-113 0 -206.5 43.5
t-160.5 118.5t-104 175t-37 212q0 110 37 209t104 174t160.5 119.5t206.5 44.5q112 0 205 -44.5t160 -119.5t104 -174t37 -209q0 -112 -37.5 -212t-104.5 -175t-160 -118.5t-204 -43.5zM949 528q0 77 -26 151.5t-73 133.5t-113 95.5t-146 36.5q-83 0 -149.5 -35t-113.5 -92
t-72 -130.5t-25 -150.5q0 -92 28 -167.5t77 -129t114.5 -82.5t140.5 -29q72 0 136 28t113 79.5t78 125.5t31 166z" />
    <glyph glyph-name="ugrave" unicode="&#xf9;" horiz-adv-x="1074" 
d="M953 33q0 -14 -9 -23.5t-23 -9.5h-111q-13 0 -23 9.5t-10 24.5l1 81q0 17 -12 20t-20 -8q-52 -64 -126.5 -106t-165.5 -42q-89 0 -157.5 32t-115 86t-70 125t-21.5 149l13 652q0 14 9 23t22 9h77q14 0 23.5 -9t9.5 -24l11 -648q5 -118 62.5 -181.5t154.5 -63.5
q53 0 108 19t100 56.5t74 93.5t30 129l11 595q0 14 9 23.5t23 9.5h77q14 0 23 -9.5t9 -24.5zM427 1407q-7 7 -7.5 15.5t3 16.5t11 13.5t16.5 5.5h75q22 -3 30 -17l124 -208q7 -13 4 -24t-11.5 -17t-19.5 -6t-20 10z" />
    <glyph glyph-name="uacute" unicode="&#xfa;" horiz-adv-x="1074" 
d="M953 33q0 -14 -9 -23.5t-23 -9.5h-111q-13 0 -23 9.5t-10 24.5l1 81q0 17 -12 20t-20 -8q-52 -64 -126.5 -106t-165.5 -42q-89 0 -157.5 32t-115 86t-70 125t-21.5 149l13 652q0 14 9 23t22 9h77q14 0 23.5 -9t9.5 -24l11 -648q5 -118 62.5 -181.5t154.5 -63.5
q53 0 108 19t100 56.5t74 93.5t30 129l11 595q0 14 9 23.5t23 9.5h77q14 0 23 -9.5t9 -24.5zM534 1196q-9 -11 -20 -11t-19.5 6t-11.5 17.5t4 24.5l124 208q8 14 30 17h76q11 0 18 -5.5t10 -13.5t1.5 -17t-7.5 -15z" />
    <glyph glyph-name="ucircumflex" unicode="&#xfb;" horiz-adv-x="1074" 
d="M953 33q0 -14 -9 -23.5t-23 -9.5h-111q-13 0 -23 9.5t-10 24.5l1 81q0 17 -12 20t-20 -8q-52 -64 -126.5 -106t-165.5 -42q-89 0 -157.5 32t-115 86t-70 125t-21.5 149l13 652q0 14 9 23t22 9h77q14 0 23.5 -9t9.5 -24l11 -648q5 -118 62.5 -181.5t154.5 -63.5
q53 0 108 19t100 56.5t74 93.5t30 129l11 595q0 14 9 23.5t23 9.5h77q14 0 23 -9.5t9 -24.5zM780 1238q16 -16 8.5 -33.5t-28.5 -17.5h-75q-19 0 -29 16l-120 196q-4 8 -11.5 7.5t-10.5 -7.5l-120 -196q-10 -16 -31 -16h-74q-23 0 -28.5 18t8.5 33l199 208q11 13 28 13h58
q14 0 25 -13z" />
    <glyph glyph-name="udieresis" unicode="&#xfc;" horiz-adv-x="1074" 
d="M669 1259q-14 0 -23.5 9t-9.5 23l2 136q0 14 9 22.5t22 8.5h65q13 0 22 -9t9 -23l3 -135q0 -14 -9.5 -23t-23.5 -9h-66zM386 1259q-14 0 -23.5 9t-9.5 23l2 136q0 14 9 22.5t22 8.5h65q13 0 22 -9t9 -23l3 -135q0 -14 -9.5 -23t-23.5 -9h-66zM953 33q0 -14 -9 -23.5
t-23 -9.5h-111q-13 0 -23 9.5t-10 24.5l1 81q0 17 -12 20t-20 -8q-52 -64 -126.5 -106t-165.5 -42q-89 0 -157.5 32t-115 86t-70 125t-21.5 149l13 652q0 14 9 23t22 9h77q14 0 23.5 -9t9.5 -24l11 -648q5 -118 62.5 -181.5t154.5 -63.5q53 0 108 19t100 56.5t74 93.5
t30 129l11 595q0 14 9 23.5t23 9.5h77q14 0 23 -9.5t9 -24.5z" />
    <glyph glyph-name="yacute" unicode="&#xfd;" horiz-adv-x="1024" 
d="M543 1196q-9 -11 -20 -11t-19.5 6t-11.5 17.5t4 24.5l124 208q8 14 30 17h76q11 0 18 -5.5t10 -13.5t1.5 -17t-7.5 -15zM970 1055q17 0 26 -13.5t4 -28.5l-514 -1430q-4 -11 -12.5 -17t-19.5 -6h-112q-18 0 -26 15t-1 31l142 348q3 8 1 16l-373 1042q-5 17 4 30t26 13h76
q25 0 32 -22l296 -818q6 -14 18.5 -12.5t17.5 12.5l307 818q7 22 31 22h77z" />
    <glyph glyph-name="ydieresis" unicode="&#xff;" horiz-adv-x="1024" 
d="M631 1259q-14 0 -23.5 9t-9.5 23l2 136q0 14 9 22.5t22 8.5h65q13 0 22 -9t9 -23l3 -135q0 -14 -9.5 -23t-23.5 -9h-66zM348 1259q-14 0 -23.5 9t-9.5 23l2 136q0 14 9 22.5t22 8.5h65q13 0 22 -9t9 -23l3 -135q0 -14 -9.5 -23t-23.5 -9h-66zM970 1055q17 0 26 -13.5
t4 -28.5l-514 -1430q-4 -11 -12.5 -17t-19.5 -6h-112q-18 0 -26 15t-1 31l142 348q3 8 1 16l-373 1042q-5 17 4 30t26 13h76q25 0 32 -22l296 -818q6 -14 18.5 -12.5t17.5 12.5l307 818q7 22 31 22h77z" />
    <glyph glyph-name="Ydieresis" unicode="&#x178;" horiz-adv-x="1170" 
d="M719 1573q-14 0 -23.5 9t-9.5 23l2 136q0 14 9 22.5t22 8.5h65q13 0 22 -9t9 -23l3 -135q0 -14 -9.5 -23t-23.5 -9h-66zM436 1573q-14 0 -23.5 9t-9.5 23l2 136q0 14 9 22.5t22 8.5h65q13 0 22 -9t9 -23l3 -135q0 -14 -9.5 -23t-23.5 -9h-66zM1106 1458q21 0 29 -17.5
t-3 -34.5l-436 -672q-2 -5 -4 -9.5t-2 -9.5l12 -681q0 -14 -9.5 -24t-24.5 -10h-112q-15 0 -24.5 10t-9.5 24l11 681q0 11 -5 19l-438 676q-6 7 -5.5 15.5t5 16t12 12.5t17.5 4h81q17 0 28 -16l359 -542q9 -13 23 -13q18 0 24 14l360 539q11 17 30 18h82z" />
    <glyph glyph-name="endash" unicode="&#x2013;" horiz-adv-x="1012" 
d="M924 527q-1 -11 -8.5 -18.5t-18.5 -8.5h-781q-11 0 -19.5 8t-8.5 19v77q0 11 8.5 19.5t19.5 8.5h780q11 0 19 -8t9 -19v-78z" />
    <glyph glyph-name="emdash" unicode="&#x2014;" horiz-adv-x="1389" 
d="M1301 527q-1 -11 -8.5 -18.5t-18.5 -8.5h-1158q-11 0 -19.5 8t-8.5 19v77q0 11 8.5 19.5t19.5 8.5h1157q11 0 19 -8t9 -19v-78z" />
    <glyph glyph-name="quoteleft" unicode="&#x2018;" horiz-adv-x="360" 
d="M200 1453q11 9 21.5 8t17 -8t7.5 -18t-8 -21q-20 -23 -28 -49.5t-4.5 -52.5t17.5 -48.5t39 -36.5q18 -11 18 -32l-2 -135q0 -14 -9.5 -24t-23.5 -10h-129q-14 0 -23 10t-10 24l-3 135q3 82 34 147t86 111z" />
    <glyph glyph-name="quoteright" unicode="&#x2019;" horiz-adv-x="360" 
d="M161 1031q-11 -9 -22 -8t-17.5 8t-7.5 18t8 21q20 22 28 49t5 53.5t-17.5 48.5t-39.5 36q-8 6 -13 13.5t-5 18.5l2 135q0 14 9.5 24t23.5 10h129q14 0 23 -10t10 -24l3 -135q-3 -82 -34 -147t-85 -111z" />
    <glyph glyph-name="quotedblleft" unicode="&#x201c;" horiz-adv-x="823" 
d="M200 1453q11 9 21.5 8t17 -8t7.5 -18t-8 -21q-20 -23 -28 -49.5t-4.5 -52.5t17.5 -48.5t39 -36.5q18 -11 18 -32l-2 -135q0 -14 -9.5 -24t-23.5 -10h-129q-14 0 -23 10t-10 24l-3 135q3 82 34 147t86 111zM557 1453q11 9 21.5 8t17 -8t7.5 -18t-8 -21q-20 -23 -28 -49.5
t-4.5 -52.5t17.5 -48.5t39 -36.5q18 -11 18 -32l-2 -135q0 -14 -9.5 -24t-23.5 -10h-129q-14 0 -23 10t-10 24l-3 135q3 82 34 147t86 111z" />
    <glyph glyph-name="quotedblright" unicode="&#x201d;" horiz-adv-x="823" 
d="M161 1031q-11 -9 -22 -8t-17.5 8t-7.5 18t8 21q20 22 28 49t5 53.5t-17.5 48.5t-39.5 36q-8 6 -13 13.5t-5 18.5l2 135q0 14 9.5 24t23.5 10h129q14 0 23 -10t10 -24l3 -135q-3 -82 -34 -147t-85 -111zM518 1031q-11 -9 -22 -8t-17.5 8t-7.5 18t8 21q20 22 28 49t5 53.5
t-17.5 48.5t-39.5 36q-8 6 -13 13.5t-5 18.5l2 135q0 14 9.5 24t23.5 10h129q14 0 23 -10t10 -24l3 -135q-3 -82 -34 -147t-85 -111z" />
    <glyph glyph-name="bullet" unicode="&#x2022;" horiz-adv-x="854" 
d="M771 728q0 -71 -27 -133.5t-73.5 -109t-109 -73.5t-133.5 -27q-72 0 -135 27t-109.5 73.5t-73.5 109t-27 133.5q0 72 27 135t73.5 109.5t109.5 73.5t135 27q71 0 133.5 -27t109 -73.5t73.5 -109.5t27 -135z" />
    <glyph glyph-name="ellipsis" unicode="&#x2026;" horiz-adv-x="1729" 
d="M1544 34q0 -14 -9 -24t-24 -10h-131q-14 0 -23 10t-9 24l2 135q0 14 9.5 24t23.5 10h125q14 0 23 -10t10 -24zM894 34q0 -14 -9 -24t-24 -10h-131q-14 0 -23 10t-9 24l2 135q0 14 9.5 24t23.5 10h125q14 0 23 -10t10 -24zM307 34q0 -14 -9 -24t-24 -10h-131q-14 0 -23 10
t-9 24l2 135q0 14 9.5 24t23.5 10h125q14 0 23 -10t10 -24z" />
    <glyph glyph-name="Euro" unicode="&#x20ac;" horiz-adv-x="1270" 
d="M223 676q-1 25 -1.5 52t0.5 52q0 17 -20 20h-100q-13 0 -20.5 8t-8.5 22v73q0 11 8 19t21 9h130q14 0 19 17q25 105 77.5 192.5t125 154t160 110.5t181 62t189.5 8.5t186 -49.5q11 -5 17 -17.5t0 -24.5l-27 -63q-11 -27 -41 -16q-123 43 -236 33.5t-207 -60t-164.5 -134
t-107.5 -187.5q-5 -11 0 -18.5t20 -7.5h271q12 0 20 -7.5t9 -19.5v-75q0 -12 -8.5 -20.5t-22.5 -8.5h-293q-7 -1 -12.5 -5.5t-5.5 -12.5q-2 -33 -1 -62.5t3 -49.5q2 -18 20 -18h291q13 0 21 -8.5t8 -22.5v-72q0 -26 -28 -28h-263q-14 0 -18 -8.5t0 -19.5
q43 -112 115.5 -194.5t165 -127.5t200.5 -48t222 44q13 5 23.5 0.5t16.5 -16.5l30 -69q5 -11 1.5 -22t-14.5 -17q-51 -30 -123 -47t-163 -17q-98 0 -196.5 36.5t-184.5 105t-153 165.5t-102 219q-4 16 -21 16h-130q-13 0 -21 8t-8 22v71q0 12 8 21t22 9h101q8 0 14 6t5 18z
" />
    <glyph glyph-name="space" unicode=" " horiz-adv-x="548" 
 />
    <glyph glyph-name="exclam" unicode="!" horiz-adv-x="406" 
d="M281 432q0 -15 -9 -24t-23 -9h-99q-15 0 -24.5 9t-9.5 24l17 991q0 16 9 25.5t25 9.5h64q14 0 23.5 -9.5t9.5 -23.5zM296 34q0 -14 -9 -24t-24 -10h-131q-14 0 -23 10t-9 24l2 135q0 14 9.5 24t23.5 10h125q14 0 23 -10t10 -24z" />
    <glyph glyph-name="quotedbl" unicode="&#x22;" horiz-adv-x="586" 
d="M221 1056q0 -34 -34 -34h-64q-16 0 -25.5 9t-9.5 24v367q0 15 8.5 25.5t25.5 10.5h68q15 0 23 -10.5t8 -26.5v-365zM498 1056q0 -34 -34 -34h-64q-16 0 -25.5 9t-9.5 24v367q0 15 8.5 25.5t25.5 10.5h68q15 0 23 -10.5t8 -26.5v-365z" />
    <glyph glyph-name="numbersign" unicode="#" horiz-adv-x="1253" 
d="M1162 944q-2 -11 -9.5 -17t-18.5 -6h-204q-17 0 -20 -17l-40 -245q-2 -11 4 -17.5t16 -6.5h186q13 0 22 -8t7 -21l-13 -78q-2 -11 -9.5 -17t-18.5 -6h-200q-19 0 -22 -19l-78 -461q-2 -13 -10.5 -19t-20.5 -6h-73q-12 0 -19.5 6.5t-5.5 20.5l77 455q3 23 -22 23h-234
q-18 -2 -20 -17l-78 -465q-2 -12 -10.5 -17.5t-19.5 -5.5h-72q-13 0 -21 7.5t-6 21.5l76 452q2 13 -4.5 18.5t-17.5 5.5h-175q-14 0 -22.5 10t-5.5 25l13 71q4 23 29 24h194q16 0 19 19l43 246q2 9 -4 15t-16 6h-180q-13 0 -22 8t-7 21l13 76q5 25 29 25h191q7 0 14.5 5.5
t8.5 16.5l64 361q2 12 10.5 18t19.5 6h67q11 0 18.5 -6.5t5.5 -18.5l-59 -359q-2 -10 3.5 -16.5t16.5 -6.5h241q13 0 19 17l64 365q5 25 30 25h65q11 0 19 -7t6 -21l-56 -356q0 -10 5 -16.5t16 -6.5h191q12 0 19 -8t5 -20zM784 902q2 8 -5 13.5t-15 5.5h-238q-19 0 -21 -18
l-42 -247q-2 -9 5 -15t15 -6h240q17 0 20 19z" />
    <glyph glyph-name="dollar" unicode="$" horiz-adv-x="1270" 
d="M1186 413q3 -99 -39.5 -174t-112 -126.5t-155.5 -80t-170 -33.5q-19 0 -19 -20v-120q0 -13 -7 -21.5t-21 -8.5h-73q-14 0 -20.5 8.5t-6.5 21.5v120q0 8 -5 15t-13 7q-81 2 -161 37t-145 92t-108.5 130t-52.5 151q0 15 7.5 25.5t25.5 10.5h80q11 0 20.5 -7.5t13.5 -18.5
q20 -69 60 -122.5t93 -90.5t115.5 -56.5t128.5 -19.5q70 0 142 14t130 46.5t94.5 87t34.5 135.5q-1 50 -22 87t-55.5 63.5t-78 44.5t-89 30.5t-89 21t-77.5 17.5q-57 14 -115 31t-112 39t-101 51t-82 68t-55 89.5t-20 114.5q0 87 31.5 156t87.5 118.5t132.5 79t165.5 35.5
q8 0 13.5 6t5.5 14v117q0 28 27 28h74q12 0 19.5 -7.5t7.5 -20.5v-122q0 -16 15 -19q70 -15 132.5 -47t112.5 -78t85 -105t51 -126q1 -15 -7.5 -24.5t-24.5 -9.5h-80q-15 0 -23.5 9.5t-14.5 23.5q-23 63 -60.5 108t-82.5 74t-94 43.5t-97 14.5q-49 0 -106 -13t-106.5 -44
t-82.5 -81t-33 -123q1 -62 36.5 -104.5t92.5 -72.5t129.5 -51t149.5 -39q109 -28 200.5 -54.5t158 -68.5t104.5 -107t41 -169z" />
    <glyph glyph-name="Aring" unicode="&#xc5;" horiz-adv-x="1396" 
d="M731 1892q39 0 72 -14.5t57.5 -39t38.5 -58t14 -70.5q0 -38 -14 -70.5t-38.5 -57t-57.5 -38.5t-72 -14q-37 0 -70 14t-57.5 38.5t-39 57t-14.5 70.5q0 37 14.5 70.5t39 58t57.5 39t70 14.5zM731 1612q47 0 73.5 26.5t26.5 71.5q0 47 -26.5 73t-73.5 26q-45 0 -71.5 -26
t-26.5 -73q0 -45 26.5 -71.5t71.5 -26.5zM1350 42q7 -17 -3.5 -29t-24.5 -13h-109q-25 0 -32 25l-147 402q-9 25 -36 25h-559q-25 0 -35 -23l-151 -406q-8 -22 -30 -23h-108q-20 0 -28 13t0 33l564 1394q3 8 9.5 13t17.5 5h80q22 0 30 -21zM956 639l-211 573q-4 11 -11.5 16
t-15.5 5t-15 -5.5t-10 -15.5l-211 -573q-6 -17 2 -26.5t25 -9.5h420q17 0 24.5 11t2.5 25z" />
    <glyph glyph-name="percent" unicode="%" horiz-adv-x="1618" 
d="M407 1472q58 0 109 -22t89.5 -60.5t60.5 -90t22 -111.5q0 -59 -22 -110t-60.5 -89.5t-89.5 -60.5t-109 -22q-59 0 -110.5 22t-90 60.5t-61 89.5t-22.5 110q0 60 22.5 111.5t61 90t90 60.5t110.5 22zM407 1022q36 0 67 12.5t53 34.5t34.5 52.5t12.5 66.5q0 37 -12.5 68
t-34.5 53.5t-53 34.5t-67 12q-37 0 -67.5 -12t-53 -34.5t-35 -53.5t-12.5 -68q0 -36 12.5 -66.5t35 -52.5t53 -34.5t67.5 -12.5zM1207 550q58 0 109.5 -22.5t89.5 -61.5t60 -91t22 -112q0 -59 -22 -109.5t-60 -88t-89.5 -59t-109.5 -21.5q-59 0 -110.5 21.5t-90 59t-61 88
t-22.5 109.5q0 60 22.5 112t61 91t90 61.5t110.5 22.5zM1207 101q36 0 67 11.5t53.5 32.5t35 51t12.5 67q0 38 -12.5 69.5t-35 54t-53.5 35t-67 12.5q-37 0 -68 -12.5t-53.5 -35t-35 -54t-12.5 -69.5q0 -37 12.5 -67t35 -51t53.5 -32.5t68 -11.5zM1119 1458q16 0 25.5 -14.5
t2.5 -28.5l-530 -1394q-8 -21 -31 -21h-118q-19 0 -26 15.5t-2 30.5l574 1393q7 19 28 19h77z" />
    <glyph glyph-name="agrave.001" unicode="&#xe5;" 
d="M563 1533q39 0 72 -14.5t57.5 -39t38.5 -58t14 -70.5q0 -38 -14 -70.5t-38.5 -57t-57.5 -38.5t-72 -14q-37 0 -70 14t-57.5 38.5t-39 57t-14.5 70.5q0 37 14.5 70.5t39 58t57.5 39t70 14.5zM563 1253q47 0 73.5 26.5t26.5 71.5q0 47 -26.5 73t-73.5 26q-45 0 -71.5 -26
t-26.5 -73q0 -45 26.5 -71.5t71.5 -26.5zM800 781q-2 45 -24 76.5t-57 51t-79.5 28t-91.5 8.5q-40 0 -80.5 -8.5t-76 -28t-64 -51.5t-44.5 -78q-7 -20 -13 -29t-23 -11h-85q-19 0 -26 17.5t-3 33.5q13 73 57 127t104 89t130 52t135 17q75 0 143.5 -17.5t121 -55.5
t84.5 -97.5t34 -142.5l12 -728q0 -15 -9.5 -24.5t-24.5 -9.5h-102q-15 0 -24 9.5t-9 24.5l1 82q0 14 -12 17t-22 -8q-77 -79 -170 -112.5t-191 -33.5q-69 0 -125.5 25t-97.5 66.5t-63.5 95.5t-23.5 113q0 49 15 94t42 82.5t65 65t84 41.5q73 18 137 28.5t120 21.5t104 24.5
t90 37.5q62 35 62 107zM232 300q0 -63 30 -101t76.5 -55t104.5 -15t114 18.5t103.5 45t75.5 65.5q18 24 29 60.5t17 77t8.5 80t2.5 69.5q0 14 -14 13q-49 -18 -95.5 -31.5t-95 -25t-102 -23t-115.5 -24.5q-64 -14 -101.5 -55.5t-37.5 -98.5z" />
    <glyph glyph-name="ampersand" unicode="&#x26;" horiz-adv-x="1279" 
d="M1180 51q8 -8 7.5 -17t-5.5 -16.5t-13.5 -12.5t-16.5 -5h-132q-19 0 -29 15l-46 58q-5 7 -13 8.5t-14 -3.5q-39 -29 -86.5 -48t-94.5 -30.5t-89 -16t-70 -4.5q-99 0 -187.5 25t-155.5 75.5t-106.5 126t-41.5 177.5q-2 67 20 127.5t60 111.5t88 90.5t104 66.5q11 5 13 14
t-5 18q-13 19 -30.5 49t-33.5 69.5t-27.5 86.5t-12.5 99q0 75 26 141t72 115.5t108 78.5t134 29t135 -27.5t110.5 -74t74.5 -107.5t26 -128q-1 -77 -26.5 -138t-68.5 -108t-101.5 -81.5t-125.5 -58.5q-13 -3 -15.5 -14t5.5 -19l314 -375q8 -10 17.5 -10t15.5 8q4 7 12.5 25
t16.5 51q2 11 10 18.5t23 7.5h85q14 0 23.5 -9.5t9.5 -26.5q-5 -46 -25.5 -99t-52.5 -97q-4 -8 -5 -15.5t6 -12.5zM395 1128q2 -85 36 -154.5t87 -132.5q5 -7 11.5 -7.5t13.5 1.5q50 18 99.5 45t88.5 63t63.5 82.5t26.5 103.5q1 39 -15.5 77t-45 67.5t-67.5 48t-83 18.5
t-83 -17t-68.5 -46t-46.5 -67.5t-17 -81.5zM810 203q9 6 12 15.5t-5 17.5l-351 446q-12 17 -29 7q-57 -26 -100 -68t-67.5 -93t-27.5 -108t21 -114q22 -55 61 -91t88 -56t103.5 -25t108 2t102 24.5t84.5 42.5z" />
    <glyph glyph-name="quotesingle" unicode="'" horiz-adv-x="308" 
d="M221 1056q0 -34 -34 -34h-64q-16 0 -25.5 9t-9.5 24v367q0 15 8.5 25.5t25.5 10.5h68q15 0 23 -10.5t8 -26.5v-365z" />
    <glyph glyph-name="parenleft" unicode="(" horiz-adv-x="588" 
d="M485 -368q10 -18 5.5 -32.5t-16.5 -22t-27.5 -6.5t-27.5 13q-79 94 -142.5 201.5t-108.5 226t-69.5 246t-24.5 262.5q0 138 25.5 268t73 250t114 228t147.5 201q10 12 21.5 12.5t20 -6t12.5 -17t-2 -21.5q-114 -201 -178 -425t-64 -476q0 -250 64 -475t177 -427z" />
    <glyph glyph-name="parenright" unicode=")" horiz-adv-x="538" 
d="M53.0293 -368q-9.99902 -18 -5.49902 -32.5q4.49902 -14.5 16.499 -22q11.999 -7.5 27.498 -6.5t27.498 13q78.9951 94 142.491 201.5t108.493 226q44.998 118.5 69.4961 246q24.499 127.5 24.499 262.5q0 138 -25.499 268q-25.498 130 -72.9951 250t-113.993 228
t-147.491 201q-9.99902 12 -21.499 12.5q-11.499 0.5 -19.998 -6q-8.5 -6.5 -12.5 -17q-3.99902 -10.5 2 -21.5q113.993 -201 177.989 -425t63.9961 -476q0 -250 -63.9961 -475t-176.989 -427z" />
    <glyph glyph-name="asterisk" unicode="*" horiz-adv-x="714" 
d="M624 1215l-160 -62q-9 -3 -11 -12.5t4 -16.5l106 -134q7 -7 5 -15t-7 -12l-58 -47q-6 -5 -14 -3t-12 7l-104 145q-7 9 -16 9t-15 -8l-107 -145q-5 -6 -13.5 -7t-14.5 4l-55 43q-8 6 -8.5 13.5t4.5 14.5l107 134q8 8 4.5 17t-11.5 13l-158 61q-9 2 -11.5 7t-0.5 13l28 74
q6 16 26 9l154 -72q8 -3 13 1t5 12l-6 179q0 19 19 21h75q10 0 14.5 -6.5t4.5 -14.5l-7 -179q0 -8 5.5 -12.5t12.5 -0.5l163 74q8 3 14.5 -1t8.5 -9l27 -70q2 -8 -0.5 -15t-10.5 -9z" />
    <glyph glyph-name="plus" unicode="+" horiz-adv-x="1115" 
d="M1047 479q-2 -26 -27 -28h-376q-8 0 -14 -6t-6 -14v-375q0 -11 -8.5 -19.5t-19.5 -8.5h-77q-11 0 -18.5 8t-8.5 18v375q0 9 -5.5 15.5t-15.5 6.5h-374q-11 0 -20 8t-9 20v75q0 12 8.5 20.5t20.5 8.5h374q9 0 15 6t6 14v375q0 12 7 20t20 8h76q13 0 21 -8t8 -20v-376
q0 -8 6 -13.5t14 -5.5h374q12 0 20.5 -7.5t8.5 -19.5v-77z" />
    <glyph glyph-name="comma" unicode="," horiz-adv-x="360" 
d="M161 -222q-11 -9 -22 -8t-17.5 8t-7.5 17.5t8 20.5q20 22 28 49t5 53.5t-17.5 48.5t-39.5 36q-18 13 -18 32l2 136q0 14 9.5 24t23.5 10h129q14 0 23 -10t10 -24l3 -135q-3 -82 -34 -147t-85 -111z" />
    <glyph glyph-name="hyphen" unicode="-" horiz-adv-x="773" 
d="M685 533q-2 -26 -27 -28h-541q-12 0 -20.5 8t-8.5 20v73q0 12 8.5 20.5t20.5 8.5h539q11 0 19.5 -8t9.5 -19v-75z" />
    <glyph glyph-name="period" unicode="." horiz-adv-x="370" 
d="M283 34q0 -14 -9 -24t-24 -10h-131q-14 0 -23 10t-9 24l2 135q0 14 9.5 24t23.5 10h125q14 0 23 -10t10 -24z" />
    <glyph glyph-name="slash" unicode="/" horiz-adv-x="859" 
d="M753 1458q16 0 25.5 -14.5t2.5 -28.5l-530 -1394q-8 -21 -31 -21h-118q-19 0 -26 15.5t-2 30.5l574 1393q7 19 28 19h77z" />
    <glyph glyph-name="zero" unicode="0" horiz-adv-x="1199" 
d="M593 1458q96 0 172.5 -30t134.5 -82.5t99 -125.5t67 -159t38 -182t12 -195q0 -85 -13 -170t-40.5 -163t-69 -146t-99 -118t-131 -79t-163.5 -29q-91 0 -164.5 28.5t-131 79t-99 118.5t-69 146t-40.5 163.5t-13 169.5q0 99 11.5 195t36.5 182t64.5 159t96.5 125.5
t131.5 82.5t169.5 30zM600 132q75 0 131.5 27t97 72.5t66.5 105t41 125.5t21 134t6 129q0 76 -8.5 151t-27 142.5t-47.5 125t-69 99.5t-92 65.5t-117 23.5t-116.5 -23.5t-92 -65.5t-69.5 -99.5t-48 -125t-28 -142.5t-9 -151q0 -62 8 -130t25 -133.5t45 -125.5t68 -105
t93.5 -72t121.5 -27z" />
    <glyph glyph-name="one" unicode="1" horiz-adv-x="644" 
d="M557 34q0 -13 -8.5 -22.5t-22.5 -11.5h-114q-15 0 -25 9.5t-11 23.5l17 991q0 13 -9 22t-22 9h-271q-14 0 -23.5 9t-9.5 23l2 66q0 14 9 23t24 9h66q51 0 95 16.5t76 47t51 75t20 101.5q0 14 9 23.5t23 9.5h67q14 0 23 -9.5t9 -22.5z" />
    <glyph glyph-name="two" unicode="2" horiz-adv-x="1216" 
d="M1073 34q0 -14 -9 -24t-23 -10h-907q-12 0 -20 6t-11 15t-1.5 19t8.5 18l660 799q46 57 65.5 116t17 114t-25 102t-59.5 81t-86.5 52t-106.5 14q-233 -17 -312 -240q-5 -13 -12.5 -21t-24.5 -8l-85 -1q-17 1 -28 11.5t-6 26.5q25 85 73.5 151t112 111t139 68.5
t155.5 23.5q84 0 156.5 -28.5t127 -77.5t88 -115t39.5 -141t-19 -154.5t-87 -156.5l-476 -593q-7 -8 -4.5 -19.5t16.5 -11.5h604q17 0 28 -8t11 -26z" />
    <glyph glyph-name="three" unicode="3" horiz-adv-x="1154" 
d="M798 756q54 -19 103 -52t86.5 -79t60 -103.5t23.5 -125.5q0 -102 -39.5 -179.5t-108 -129.5t-159 -79t-192.5 -29q-87 -2 -167.5 20.5t-145.5 68t-112 114t-66 160.5q-1 16 9.5 24.5t24.5 8.5h100q22 0 30 -18q11 -32 32 -70.5t60 -72t99.5 -57.5t149.5 -25q74 2 133 26
t100 64t63 91.5t22 109.5q0 75 -35.5 128t-89.5 87t-119 49.5t-124 15.5h-86q-14 0 -23.5 8.5t-9.5 24.5l1 80q1 14 10.5 22.5t21.5 9.5h95q59 0 118.5 16t107 48t77.5 81.5t30 115.5q0 53 -22 94.5t-61 70t-92.5 43.5t-116.5 15q-48 0 -97.5 -15t-92 -44.5t-73.5 -73.5
t-41 -102q-6 -30 -35 -30h-88q-14 0 -24 9.5t-8 26.5q20 87 63.5 153.5t104.5 111.5t136 67.5t159 22.5q94 -1 172.5 -28t135 -75t88 -114.5t31.5 -146.5q0 -45 -14.5 -90.5t-43 -86t-69.5 -74t-94 -54.5q-13 -5 -11 -17t13 -16z" />
    <glyph glyph-name="four" unicode="4" horiz-adv-x="1147" 
d="M1070 424q-1 -14 -10 -23.5t-23 -9.5h-147q-23 0 -23 -22l5 -333q0 -15 -10.5 -25.5t-25.5 -10.5h-108q-16 0 -26 10.5t-10 25.5l6 336q0 8 -6.5 13.5t-14.5 5.5h-576q-14 0 -24 8.5t-10 25.5l2 80q0 11 7 21l643 916q12 16 30 16h67q14 0 23.5 -9.5t9.5 -23.5l15 -870
q0 -9 5 -15t15 -6h153q11 0 20.5 -9t10.5 -22zM716 1207q0 8 -4 13.5t-10 7t-12 -0.5t-10 -8l-408 -657q-4 -11 -0.5 -19.5t15.5 -8.5h395q8 0 13.5 6t5.5 14z" />
    <glyph glyph-name="five" unicode="5" horiz-adv-x="1165" 
d="M612 919q97 0 183 -34.5t150.5 -96.5t102 -150t37.5 -194q0 -90 -35 -174t-99 -148.5t-154.5 -103.5t-201.5 -39q-98 0 -181.5 24.5t-148.5 70.5t-110.5 113t-67.5 154q-4 15 7.5 24.5t26.5 9.5h100q11 0 20.5 -7t12.5 -19q21 -61 53 -102.5t75 -67t96.5 -36.5t116.5 -11
q75 0 135 26t102 70t65 101t23 120q0 79 -26.5 141t-70.5 105t-103 65t-123 22q-60 0 -104 -10t-78 -26.5t-60.5 -38t-50.5 -45.5q-6 -7 -13 -11.5t-16 -5.5h-89q-14 0 -24 8.5t-9 25.5l76 748q5 31 35 31h712q14 0 24.5 -8.5t10.5 -24.5v-78q-3 -30 -33 -33h-607
q-18 0 -20 -19l-34 -429q1 -13 9.5 -18t18.5 0q64 35 128 53t139 18z" />
    <glyph glyph-name="six" unicode="6" horiz-adv-x="1228" 
d="M673 917q108 -2 195.5 -40t149 -101t95 -145t33.5 -173q0 -99 -36.5 -186t-100.5 -151.5t-151.5 -102.5t-190.5 -39q-113 0 -200 27t-151.5 75t-109 113.5t-72 143.5t-39.5 165t-12 177q0 77 12.5 165t39 174.5t69.5 166t103.5 140t140.5 96.5t181 36q93 0 168 -27.5
t130.5 -76t90.5 -114t49 -140.5q2 -12 0 -18.5t-6.5 -10t-11.5 -4t-14 -0.5h-90q-14 0 -22 4t-12 25q-10 58 -35.5 102t-62.5 74t-83 45t-98 15q-67 0 -122 -24t-98 -65t-74.5 -95t-52.5 -114.5t-31 -123.5t-10 -121q0 -9 6 -17t14 -3q24 16 59 41.5t84.5 49t115 40.5
t150.5 17zM647 132q75 0 139 24t111 68t73.5 106t26.5 138q0 67 -26 124.5t-71 99t-106.5 65t-132.5 23.5q-77 0 -148.5 -25t-126.5 -66t-85.5 -94.5t-24.5 -111.5q8 -89 40 -154.5t81.5 -109t113.5 -65t136 -22.5z" />
    <glyph glyph-name="seven" unicode="7" horiz-adv-x="1058" 
d="M984 1299q0 -13 -4 -20q-43 -82 -89.5 -181.5t-94.5 -209t-94.5 -224.5t-88.5 -227.5t-77 -218t-60 -195.5q-7 -23 -32 -23h-113q-25 0 -31.5 14.5t0.5 30.5q49 144 106 291.5t122 302t139.5 317t159.5 336.5q5 9 1 15.5t-12 6.5h-713q-11 0 -20.5 8.5t-9.5 23.5l2 77
q0 14 8 24.5t24 10.5h840q14 0 23.5 -9.5t10.5 -23.5z" />
    <glyph glyph-name="eight" unicode="8" horiz-adv-x="1178" 
d="M800 762q64 -26 118 -64t93.5 -85t62 -102t22.5 -115q0 -93 -40 -169.5t-109 -131.5t-160.5 -85.5t-194.5 -30.5q-95 0 -186.5 26t-163.5 78t-116 130.5t-44 184.5q0 60 23 115t62.5 102t91.5 84t110 61q19 8 22.5 17.5t-15.5 18.5q-96 47 -154.5 122t-58.5 177
q0 87 37 155t97 114t137 70t157 24q49 0 100.5 -10t100 -29.5t91.5 -49.5t75 -70.5t50.5 -91.5t18.5 -112q0 -50 -18 -94.5t-49 -82t-73 -68.5t-90 -54q-16 -8 -13.5 -18.5t16.5 -15.5zM307 1092q0 -54 22.5 -97.5t61.5 -74.5t90.5 -48t110.5 -17q57 0 110 16.5t93.5 47.5
t65 74.5t24.5 96.5q0 58 -23 103t-62.5 76t-93 47t-115.5 16q-56 0 -107 -17t-90 -48.5t-62.5 -76t-24.5 -98.5zM592 132q64 0 124.5 18t107 53.5t75 86.5t28.5 117q0 61 -29.5 113.5t-77.5 91.5t-108 61t-120 22q-62 0 -122.5 -22t-109 -60.5t-78.5 -91t-30 -114.5
q0 -65 28 -116.5t75.5 -86.5t109 -53.5t127.5 -18.5z" />
    <glyph glyph-name="nine" unicode="9" horiz-adv-x="1189" 
d="M563 1458q109 0 191.5 -30.5t143 -85.5t100.5 -131.5t63.5 -168.5t33 -197.5t9.5 -218.5q0 -131 -32.5 -248.5t-98 -206t-165 -140.5t-233.5 -52q-80 0 -155.5 25t-139 71.5t-111.5 113.5t-73 150q-5 15 3.5 25.5t25.5 10.5h103q14 -2 21.5 -7.5t13.5 -21.5
q23 -62 59.5 -102.5t78.5 -65.5t86.5 -35.5t83.5 -10.5q69 -1 126.5 20.5t101.5 59.5t75 89.5t48.5 110.5t21 123t-6.5 127q-2 11 -7 15.5t-11.5 4t-13 -4.5t-11.5 -9q-32 -32 -69.5 -59.5t-81 -47.5t-91.5 -32t-101 -12q-96 0 -181 36t-149 98.5t-101 148t-37 184.5
q0 100 37.5 186.5t102.5 150.5t152.5 100.5t187.5 36.5zM918 976q-8 74 -35 139t-72 113t-107.5 76t-141.5 28q-71 0 -132 -29.5t-106.5 -78t-71.5 -112t-26 -130.5q0 -64 25 -121.5t69 -100.5t104 -68t129 -25q75 0 144 23.5t120.5 65t79.5 98t21 122.5z" />
    <glyph glyph-name="colon" unicode=":" horiz-adv-x="373" 
d="M286 34q0 -14 -9.5 -24t-23.5 -10h-134q-14 0 -23 10t-9 24l2 137q0 14 9.5 24t23.5 10h128q14 0 23 -10t10 -24zM286 882q0 -14 -9.5 -24t-23.5 -10h-134q-14 0 -23 10t-9 24l2 137q0 14 9.5 24t23.5 10h128q14 0 23 -10t10 -24z" />
    <glyph glyph-name="semicolon" unicode=";" horiz-adv-x="463" 
d="M160 -222q-11 -9 -22 -8t-17.5 8t-7.5 17.5t8 20.5q20 22 28 49t5 53.5t-17.5 48.5t-39.5 36q-18 13 -18 32l2 136q0 14 9.5 24t23.5 10h129q14 0 23 -10t10 -24l3 -135q-3 -82 -34 -147t-85 -111zM286 882q0 -14 -9 -24t-24 -10h-131q-14 0 -23 10t-9 24l2 135
q0 14 9.5 24t23.5 10h125q14 0 23 -10t10 -24z" />
    <glyph glyph-name="less" unicode="&#x3c;" horiz-adv-x="1122" 
d="M252 582q-10 -4 -9.5 -16.5t9.5 -16.5l766 -374q18 -11 18 -31v-75q0 -18 -16.5 -28t-32.5 0l-906 464q-16 7 -16 27v71q0 20 18 28l904 393q17 8 32 -2t15 -27v-76q0 -8 -6.5 -18.5t-17.5 -14.5z" />
    <glyph glyph-name="acute" unicode="&#xb4;" horiz-adv-x="428" 
d="M139 1196q-9 -11 -20 -11t-19.5 6t-11.5 17.5t4 24.5l124 208q8 14 30 17h76q11 0 18 -5.5t10 -13.5t1.5 -17t-7.5 -15z" />
    <glyph glyph-name="grave" unicode="`" horiz-adv-x="430" 
d="M85 1407q-7 7 -7.5 15.5t3 16.5t11 13.5t16.5 5.5h75q22 -3 30 -17l124 -208q7 -13 4 -24t-11.5 -17t-19.5 -6t-20 10z" />
    <glyph glyph-name="dieresis" unicode="&#xa8;" horiz-adv-x="520" 
d="M395 1259q-14 0 -23.5 9t-9.5 23l2 136q0 14 9 22.5t22 8.5h65q13 0 22 -9t9 -23l3 -135q0 -14 -9.5 -23t-23.5 -9h-66zM113 1259q-14 0 -23.5 9t-9.5 23l2 136q0 14 9 22.5t22 8.5h65q13 0 22 -9t9 -23l3 -135q0 -14 -9.5 -23t-23.5 -9h-66z" />
    <glyph glyph-name="equal" unicode="=" horiz-adv-x="1147" 
d="M1059 683q-1 -11 -8.5 -18.5t-18.5 -8.5h-916q-11 0 -19.5 8t-8.5 19v77q0 11 8.5 19.5t19.5 8.5h915q11 0 19 -8t9 -19v-78zM1059 273q-1 -11 -8.5 -19t-18.5 -8h-916q-11 0 -19.5 8t-8.5 19v76q0 12 8.5 20.5t19.5 8.5h915q11 0 19 -8t9 -19v-78z" />
    <glyph glyph-name="tilde" unicode="&#x2dc;" horiz-adv-x="712" 
d="M628 1441q-1 -33 -13 -62t-32.5 -50.5t-48.5 -33.5t-59 -12q-39 0 -67 14.5t-52 32.5t-49.5 32.5t-60.5 14.5q-41 0 -73 -21.5t-56 -53.5q-8 -8 -20.5 -5.5t-12.5 14.5q0 33 11.5 63t32.5 53.5t50.5 37t65.5 13.5q39 0 63.5 -14.5t47 -31.5t49.5 -31.5t71 -14.5
q41 0 70.5 20.5t51.5 43.5q3 5 8.5 7t10.5 0.5t8.5 -5.5t3.5 -11z" />
    <glyph glyph-name="circumflex" unicode="&#x2c6;" horiz-adv-x="707" 
d="M608 1623q16 -16 8.5 -33.5t-28.5 -17.5h-75q-19 0 -29 16l-120 196q-4 8 -11.5 7.5t-10.5 -7.5l-120 -196q-10 -16 -31 -16h-74q-23 0 -28.5 18t8.5 33l199 208q11 13 28 13h58q14 0 25 -13z" />
    <glyph glyph-name="cedilla" unicode="&#xb8;" horiz-adv-x="479" 
d="M310 -13q-11 -1 -19 -5.5t-8 -16.5l1 -54q0 -13 14 -19q42 -17 71.5 -58t29.5 -97q0 -39 -11.5 -71.5t-33 -56t-52 -36.5t-67.5 -13q-29 0 -55.5 9.5t-48 27t-36 42t-18.5 54.5q0 22 20 22h46q16 0 21 -14q7 -26 26.5 -41t44.5 -15q22 0 36.5 8.5t23.5 21.5t12.5 29.5
t3.5 32.5q0 34 -17.5 60.5t-55.5 26.5q-15 1 -23 -5t-18 -6q-8 0 -13.5 6.5t-5.5 14.5l4 137q1 12 -9 15.5t-18 5.5l14 29h127z" />
    <glyph glyph-name="trademark" unicode="&#x2122;" horiz-adv-x="903" 
d="M383 1420q0 -9 -7 -9h-112q-8 0 -8 -8l6 -335q0 -10 -9 -10h-43q-9 0 -9 10l5 335q0 8 -7 8h-110q-7 0 -7 9l1 31q0 7 7 7h286q7 0 7 -7v-31zM815 1068q0 -10 -10 -10h-42q-10 0 -10 10l5 307q0 5 -4 5.5t-6 -3.5l-107 -313q-4 -6 -9 -6h-44q-6 0 -9 6l-108 313
q-2 4 -5.5 3.5t-3.5 -5.5l4 -307q0 -10 -8 -10h-42q-10 0 -10 10l7 380q0 10 10 10h51q7 0 9 -7l120 -301q2 -5 7 -5t7 5l125 302q2 6 8 6h49q9 0 9 -9z" />
    <glyph glyph-name="paragraph" unicode="&#xb6;" horiz-adv-x="1094" 
d="M568 -440v898q-87 0 -175 32.5t-159.5 91.5t-116 142.5t-44.5 185.5q0 67 12 133t40 127t75.5 113.5t118.5 91.5t168.5 61t225.5 22h293v-1898h-137v1740h-170v-1740h-131z" />
    <glyph glyph-name="germandbls" unicode="&#xdf;" horiz-adv-x="1054" 
d="M107 1054q0 34 5.5 77t19.5 88t40 88t68 76.5t102 54t144 20.5q92 0 169 -23t132 -66.5t85.5 -107.5t30.5 -146q0 -58 -18 -105t-50 -84t-75 -64.5t-93 -45.5q-17 -6 -14 -17.5t17 -16.5q64 -24 119 -64.5t95.5 -92t64 -110.5t23.5 -119q0 -112 -39 -190t-106 -127.5
t-157.5 -72t-193.5 -22.5q-13 0 -18 7.5t-5 19.5v97q0 24 21 24q64 0 123.5 14t105 46t73 85t27.5 130q0 60 -28.5 116t-74.5 98.5t-105 68t-119 25.5q-13 0 -18 6.5t-5 16.5v111q0 11 5 18.5t18 7.5q57 0 109 14.5t91 43.5t62 73t23 103q0 50 -17.5 92t-53 72t-88 46.5
t-121.5 16.5q-75 0 -121.5 -27.5t-72 -67t-34 -84.5t-7.5 -81l20 -1043q0 -14 -9.5 -23.5t-24.5 -9.5h-113q-14 0 -23.5 9.5t-9.5 23.5z" />
    <glyph glyph-name="AE" unicode="&#xc6;" horiz-adv-x="1682" 
d="M1601 33q0 -15 -9.5 -24t-23.5 -9h-639q-26 0 -31 25l-77 405q-4 22 -32 22h-350q-11 0 -19.5 -5.5t-12.5 -16.5l-153 -408q-2 -10 -11 -16t-18 -6h-108q-20 0 -28.5 12t-0.5 32l568 1396q3 8 9.5 13t17.5 5h842q14 0 21 -8t7 -21l2 -85q1 -30 -28 -30h-672
q-18 -1 -23.5 -8.5t-4.5 -18.5l80 -416q2 -8 7.5 -14t22.5 -6l529 -2q12 0 20 -8t8 -21l1 -87q0 -13 -7.5 -21t-19.5 -8h-494q-12 0 -22 -6t-7 -19l95 -495q4 -24 28 -24h495q17 0 27 -7.5t10 -21.5zM775 599q16 0 17 10.5t0 24.5l-78 549q-2 10 -7.5 15t-13 5t-14.5 -5
t-10 -15l-185 -550q-12 -34 19 -34h272z" />
    <glyph glyph-name="oslash" unicode="&#xf8;" horiz-adv-x="1182" 
d="M592 -21q-86 0 -160 27t-134 72l-59 -69q-8 -9 -19.5 -9t-21.5 9l-54 45q-9 8 -11.5 19.5t5.5 20.5l65 76q-57 72 -88 163.5t-31 194.5q0 110 37 209t104 174t160.5 119.5t206.5 44.5q88 0 164 -28.5t138 -77.5l67 77q8 9 20 9.5t23 -8.5l53 -45q10 -8 12 -20t-6 -21
l-76 -88q53 -72 82 -160t29 -185q0 -112 -37.5 -212t-104.5 -175t-160 -118.5t-204 -43.5zM592 945q-83 0 -149.5 -35t-113.5 -92t-72 -130.5t-25 -150.5q0 -75 19 -138.5t52 -113.5l499 577q-43 37 -95.5 60t-114.5 23zM950 528q0 60 -16 119.5t-46 110.5l-491 -567
q83 -59 195 -59q72 0 136 27.5t113 78.5t78 124.5t31 165.5z" />
    <glyph glyph-name="Oslash" unicode="&#xd8;" horiz-adv-x="1566" 
d="M786 1479q116 0 217.5 -33.5t185.5 -94.5l87 104q8 10 20 10t23 -9l53 -44q11 -8 12.5 -20t-6.5 -22l-89 -106q91 -99 142 -231t51 -286q0 -161 -50.5 -300.5t-142.5 -242.5t-221 -161.5t-287 -58.5q-129 0 -238.5 41t-197.5 114l-109 -130q-8 -9 -19.5 -9t-21.5 9
l-54 45q-9 8 -11.5 19.5t5.5 20.5l117 140q-81 101 -124.5 231t-43.5 280q0 156 52 290.5t145.5 233t222.5 154.5t282 56zM784 132q79 2 150 25.5t131 64.5t108 96.5t81 123t51 144.5t18 159q0 114 -35.5 216t-99.5 182l-740 -882q67 -59 151.5 -93t184.5 -36zM784 1340
q-118 0 -217 -47.5t-171 -129t-112 -189.5t-40 -229q0 -109 29.5 -206.5t85.5 -177.5l733 875q-64 50 -141.5 77t-166.5 27z" />
    <glyph glyph-name="OE" unicode="&#x152;" horiz-adv-x="2019" 
d="M1938 33q0 -14 -9.5 -23.5t-23.5 -9.5h-864q-10 -2 -37.5 -5t-64.5 -5.5t-78.5 -4t-79.5 -1.5q-155 1 -283 60t-220 161.5t-143 240.5t-51 299q0 156 52 290.5t145.5 233t222.5 154.5t282 56q38 0 82 -2.5t83 -6.5t67.5 -7.5t36.5 -4.5h828q12 0 20 -8t8 -20l2 -86
q0 -14 -6.5 -22t-20.5 -8h-705q-14 -1 -21 -9.5t-7 -20.5l7 -406q0 -13 8 -21t20 -8h634q30 0 30 -28v-88q0 -14 -8.5 -21.5t-20.5 -7.5h-630q-14 0 -22 -8t-7 -21l8 -485q0 -14 7.5 -22t20.5 -8h702q14 0 24 -7.5t10 -21.5zM784 1340q-118 -1 -217 -49t-171 -129
t-112 -188.5t-40 -228.5q0 -124 39.5 -234t111 -193t171 -133t218.5 -53q27 0 56 2t57.5 5t54 7.5t43.5 9.5l20 1159q-16 5 -41 9.5t-55.5 8t-65 5.5t-69.5 2z" />
    <glyph glyph-name="yen" unicode="&#xa5;" horiz-adv-x="1222" 
d="M909 617q-2 -26 -27 -28h-190l1 -98h187q12 0 20 -8t9 -19v-60q-1 -11 -8 -19t-19 -9h-186l6 -342q0 -14 -9.5 -24t-24.5 -10h-112q-15 0 -24.5 10t-9.5 24l5 342h-186q-12 0 -20.5 8.5t-8.5 19.5v58q0 12 8.5 20.5t20.5 8.5h189l1 98h-190q-12 0 -20.5 8t-8.5 20v57
q0 12 8.5 20.5t20.5 8.5h192v12q0 11 -5 19l-438 676q-6 7 -5.5 15.5t5 16t12 12.5t17.5 4h81q17 0 28 -16l359 -542q9 -13 23 -13q18 0 24 14l360 539q11 17 30 18h82q21 0 29 -17.5t-3 -34.5l-436 -672q-2 -5 -4 -9.5t-2 -9.5v-12h190q12 0 20 -8t9 -19v-59z" />
    <glyph glyph-name="registered" unicode="&#xae;" horiz-adv-x="724" 
d="M363 1458q58 0 108.5 -21.5t88 -59.5t59.5 -89t22 -110q0 -58 -22 -108.5t-59.5 -88t-88 -59t-108.5 -21.5t-109 21.5t-89 59t-60 88t-22 108.5q0 59 22 110t60 89t89 59.5t109 21.5zM363 981q40 0 76 15.5t63 42.5t43 62.5t16 76.5q0 42 -16 78t-43 63t-63 42.5
t-76 15.5q-41 0 -77 -15.5t-63 -42.5t-42.5 -63t-15.5 -78q0 -41 15.5 -76.5t42.5 -62.5t63 -42.5t77 -15.5zM479 1067q3 -2 1 -5.5t-6 -3.5h-39q-4 0 -5 1l-76 93q-1 2 -5 2h-35q-4 0 -4 -5l1 -85q0 -6 -6 -6h-36q-1 0 -3 1t-2 5l4 240q0 7 7 7h107q15 0 29 -6.5
t25.5 -17.5t18 -25t6.5 -30q0 -24 -17 -44t-39 -25q-2 0 -2.5 -1.5t1.5 -3.5zM371 1193q20 0 33 10t13 29t-13.5 30.5t-33.5 11.5h-58q-5 0 -5 -5l1 -71q0 -5 5 -5h58z" />
    <glyph glyph-name="ae" unicode="&#xe6;" horiz-adv-x="1893" 
d="M1309 1080q112 0 202.5 -42.5t155 -114t101 -164.5t42.5 -194q0 -17 -9.5 -26.5t-23.5 -9.5h-804q-19 -1 -19 -22q4 -80 30.5 -147.5t72 -116.5t109 -76.5t142.5 -27.5q99 0 173.5 46t121.5 120q11 16 29 16h95q20 0 28 -16.5t-1 -32.5q-32 -65 -76.5 -116.5t-101 -88
t-123.5 -56t-143 -19.5q-68 0 -129 19.5t-113 53.5t-95 78.5t-76 95.5q-3 7 -10.5 7.5t-11.5 -7.5q-26 -42 -63.5 -85.5t-91.5 -79t-125.5 -58t-164.5 -22.5q-83 0 -146.5 24.5t-107 65t-66.5 94t-24 111.5q0 49 15 94.5t42 82.5t65 64.5t84 41.5q74 18 138 24t119.5 10.5
t103.5 13t90 32.5q63 34 63 107q-1 44 -22 80t-56 61.5t-80.5 40t-94.5 14.5q-40 0 -80.5 -8.5t-76 -28t-64 -51.5t-44.5 -78q-7 -19 -13 -28.5t-23 -11.5h-85q-19 0 -26.5 17t-2.5 35q14 73 58 126.5t104 88t129.5 51.5t134.5 17q56 0 109 -14t98.5 -40t81 -63.5
t57.5 -84.5q3 -6 9.5 -6.5t11.5 5.5q33 41 74.5 77t89.5 63t102 43t112 16zM737 269q20 26 32 58t18 66t8 67t2 61q0 13 -13 13q-49 -18 -97 -26.5t-98 -14.5t-102.5 -11.5t-110.5 -17.5q-32 -7 -58 -21t-44 -34t-27.5 -45.5t-9.5 -53.5q0 -63 30 -101t77 -55t104.5 -15
t113 18.5t102.5 45.5t73 66zM1621 653q26 0 18 26q-18 54 -49 103t-73 86.5t-94.5 59.5t-113.5 22t-115 -21.5t-97.5 -58t-75.5 -86t-48 -106.5q-7 -25 20 -25h628z" />
    <glyph glyph-name="oe" unicode="&#x153;" horiz-adv-x="2002" 
d="M593 -21q-113 0 -206.5 43.5t-160.5 118.5t-104 175t-37 212q0 110 37 209t104 174t160.5 119.5t206.5 44.5q67 0 125.5 -19t108.5 -53t91 -79.5t71 -98.5q15 -21 27 1q29 54 69.5 99.5t91.5 79t110.5 52t127.5 18.5q112 0 203 -43t156 -114.5t102 -165t42 -194.5
q0 -17 -10 -26.5t-23 -9.5h-788q-19 -1 -19 -21q0 -6 0.5 -11.5t1.5 -11.5q7 -79 32 -143t67 -109t101.5 -69.5t134.5 -24.5q100 0 174.5 45t122.5 120q11 17 29 17h94q20 0 28 -17t0 -32q-32 -65 -77 -117.5t-102 -90t-124.5 -58t-143.5 -20.5q-71 0 -132 19.5t-111 54
t-90 82t-70 102.5q-4 8 -10.5 8.5t-11.5 -7.5q-31 -54 -71.5 -101.5t-90.5 -82.5t-109 -55t-127 -20zM931 528q0 78 -22.5 152.5t-66 133.5t-106.5 95t-143 36q-83 0 -149.5 -35t-113.5 -92t-72 -130.5t-25 -150.5q0 -92 28 -167t77 -128t114.5 -81.5t140.5 -28.5
q71 0 132 27.5t106 78.5t71.5 124.5t28.5 165.5zM1729 645q11 0 16.5 7.5t1.5 18.5q-18 54 -49 103.5t-73.5 87.5t-95.5 61t-114 23t-112 -22t-91.5 -60t-69.5 -88t-45 -106q-4 -11 1.5 -18t17.5 -7h613z" />
  </font>
</defs>
</svg>
